<svg width="56" height="62" viewBox="0 0 56 62" fill="none" xmlns="http://www.w3.org/2000/svg">
<path d="M37.9444 31C37.9444 43.4369 47.6814 62 30.7169 62C13.7524 62 0 48.1208 0 31C0 13.8792 13.7524 0 30.7169 0C47.6814 0 37.9444 18.5631 37.9444 31Z" fill="#FFBB00" fill-opacity="0.6"/>
<path d="M50.6822 20.3362C52.9211 23.9849 54.1039 28.1872 54.0983 32.4726C54.0983 45.4204 43.4854 55.9215 30.3924 55.9215C17.2995 55.9215 6.68654 45.4204 6.68654 32.4726C6.6819 28.6666 7.61532 24.9186 9.4036 21.5627" stroke="#222221" stroke-width="2" stroke-miterlimit="10" stroke-linecap="round"/>
<path d="M19.5547 11.2142C23.1878 9.32042 27.2439 8.39334 31.3356 8.52153C35.4273 8.64971 39.4179 9.82889 42.9263 11.9464" stroke="#222221" stroke-width="2" stroke-miterlimit="10" stroke-linecap="round"/>
<path d="M46.9868 20.5193C49.1231 23.5356 50.4035 27.0774 50.6916 30.7669C50.9796 34.4565 50.2644 38.1553 48.6222 41.4688C46.9801 44.7822 44.4726 47.586 41.3673 49.5809C38.262 51.5758 34.6755 52.6869 30.9904 52.7959C27.3052 52.9048 23.6598 52.0073 20.443 50.1993C17.2261 48.3913 14.5587 45.7405 12.7251 42.5298C10.8916 39.319 9.96084 35.6689 10.0321 31.9687C10.1034 28.2685 11.1741 24.6572 13.1299 21.52" stroke="#222221" stroke-width="2" stroke-miterlimit="10"/>
<path d="M19.8223 14.8936C23.3254 12.7562 27.3893 11.7292 31.483 11.9469C35.5767 12.1646 39.5098 13.6169 42.7683 16.114" stroke="#222221" stroke-width="2" stroke-miterlimit="10"/>
<path d="M30.0522 35.2673L27.0677 38.4463C26.9052 38.6196 26.7097 38.7583 26.4928 38.8542C26.2759 38.9502 26.042 39.0014 25.805 39.0048C25.568 39.0082 25.3327 38.9638 25.1132 38.8741C24.8936 38.7845 24.6942 38.6514 24.5269 38.4829V38.4829C24.359 38.3149 24.2265 38.1148 24.1372 37.8944C24.0479 37.674 24.0036 37.4378 24.007 37.1999C24.0104 36.962 24.0614 36.7272 24.157 36.5094C24.2526 36.2917 24.3908 36.0955 24.5634 35.9324L27.6026 33.0585" stroke="#222221" stroke-width="2" stroke-linecap="round" stroke-linejoin="round"/>
<path d="M31.3281 29.55L40.0689 21.2882L41.6615 22.893L33.3522 31.7527" stroke="#222221" stroke-width="2" stroke-linecap="round" stroke-linejoin="round"/>
<path d="M51.1137 15.0339L43.1388 24.3574L38.5557 19.7506L47.8374 11.7451" stroke="#222221" stroke-width="2" stroke-linecap="round" stroke-linejoin="round"/>
<path d="M41.0234 22.0021L49.594 13.362" stroke="#222221" stroke-width="2" stroke-linecap="round" stroke-linejoin="round"/>
<path d="M29.5055 29.495L20.9531 21.4102" stroke="#222221" stroke-width="2" stroke-linecap="round" stroke-linejoin="round"/>
<path d="M30.8662 35.3039L33.7352 38.3548C33.8977 38.5281 34.0932 38.6668 34.3101 38.7627C34.527 38.8587 34.7609 38.9099 34.9979 38.9133C35.2349 38.9167 35.4702 38.8723 35.6897 38.7826C35.9093 38.693 36.1087 38.5599 36.276 38.3914V38.3914C36.4439 38.2234 36.5764 38.0233 36.6657 37.8029C36.755 37.5825 36.7993 37.3463 36.7959 37.1084C36.7925 36.8705 36.7415 36.6357 36.6459 36.4179C36.5503 36.2002 36.4121 36.004 36.2395 35.8409L33.2915 33.0524" stroke="#222221" stroke-width="2" stroke-linecap="round" stroke-linejoin="round"/>
<path d="M19.3779 23.0516L27.4258 31.6368" stroke="#222221" stroke-width="2" stroke-linecap="round" stroke-linejoin="round"/>
<path d="M20.9523 21.4103C21.8458 19.4821 21.1346 16.6814 19.0437 14.5824C16.5515 12.0807 13.0564 11.5316 11.2329 13.3621C9.40934 15.1926 9.9564 18.7011 12.4486 21.2028C14.5821 23.3445 17.4511 24.0462 19.3719 23.0333" stroke="#222221" stroke-width="2" stroke-linecap="round" stroke-linejoin="round"/>
<path d="M30.3924 35.1879C31.9467 35.1879 33.2068 33.9231 33.2068 32.3628C33.2068 30.8026 31.9467 29.5377 30.3924 29.5377C28.8381 29.5377 27.5781 30.8026 27.5781 32.3628C27.5781 33.9231 28.8381 35.1879 30.3924 35.1879Z" stroke="#222221" stroke-width="2" stroke-miterlimit="10"/>
<path d="M47.655 32.3628H45.2236" stroke="#222221" stroke-width="2" stroke-miterlimit="10" stroke-linecap="round"/>
<path d="M15.5427 32.3628H13.1113" stroke="#222221" stroke-width="2" stroke-miterlimit="10" stroke-linecap="round"/>
<path d="M30.3926 17.6211V15.1804" stroke="#222221" stroke-width="2" stroke-miterlimit="10" stroke-linecap="round"/>
<path d="M30.3926 49.8565V47.4158" stroke="#222221" stroke-width="2" stroke-miterlimit="10" stroke-linecap="round"/>
</svg>
