<svg width="56" height="63" viewBox="0 0 56 63" fill="none" xmlns="http://www.w3.org/2000/svg">
<path d="M38.8549 31.2955C38.8549 43.8508 48.6847 62.5909 31.5585 62.5909C14.4323 62.5909 0.548828 48.5795 0.548828 31.2955C0.548828 14.0115 14.4323 0 31.5585 0C48.6847 0 38.8549 18.7401 38.8549 31.2955Z" fill="#719E00" fill-opacity="0.6"/>
<path d="M19.56 50.4433C18.4013 51.3679 17.2548 51.5871 15.0225 51.5392C10.479 51.4501 7.06379 49.2788 6.70589 44.2582C6.44505 40.032 8.70164 34.5045 12.954 35.9634C14.1514 36.378 15.4261 36.4182 16.6422 36.0799C20.8884 34.8949 22.587 38.895 22.9267 42.854C23.0339 44.1367 22.848 45.4291 22.3868 46.6075" stroke="#222221" stroke-width="2" stroke-linecap="round" stroke-linejoin="round"/>
<path d="M14.8343 36.3059C14.8343 36.3059 14.8829 32.1482 14.3369 31.2852" stroke="#222221" stroke-width="2" stroke-linecap="round" stroke-linejoin="round"/>
<path d="M12.772 27.607C13.7001 28.2372 14.4766 31.3537 14.4766 31.3537C14.4766 31.3537 11.6741 32.0386 10.7459 31.3948C9.81783 30.7509 9.05957 27.655 9.05957 27.655C9.05957 27.655 11.8621 26.97 12.772 27.607Z" stroke="#222221" stroke-width="2" stroke-linecap="round" stroke-linejoin="round"/>
<path d="M31.4918 27.6071V15.8807C31.4918 14.9379 31.1601 14.0337 30.5697 13.367C29.9793 12.7004 29.1785 12.3258 28.3435 12.3258H27.1667V8.99012H27.7005C28.0222 8.99012 28.3308 8.84579 28.5584 8.58888C28.7859 8.33198 28.9137 7.98354 28.9137 7.62022V5.05166C28.9137 4.68834 28.7859 4.3399 28.5584 4.08299C28.3308 3.82608 28.0222 3.68176 27.7005 3.68176H21.6344C21.3126 3.68176 21.004 3.82608 20.7765 4.08299C20.549 4.3399 20.4212 4.68834 20.4212 5.05166V7.62022C20.4212 7.98354 20.549 8.33198 20.7765 8.58888C21.004 8.84579 21.3126 8.99012 21.6344 8.99012H22.1682V12.3327H20.8397C20.0047 12.3327 19.2039 12.7072 18.6135 13.3739C18.0231 14.0406 17.6914 14.9448 17.6914 15.8876V35.8059" stroke="#222221" stroke-width="2" stroke-linecap="round" stroke-linejoin="round"/>
<path d="M21.7441 9.00388H27.2643" stroke="#222221" stroke-width="2" stroke-linecap="round" stroke-linejoin="round"/>
<path d="M19.3964 49.4227C19.3183 48.9191 19.4093 48.4007 19.6516 47.9688C19.8939 47.5369 20.2701 47.2225 20.7067 47.087L40.1667 42.1622C40.4154 42.126 40.668 42.1482 40.9087 42.2274C41.1494 42.3065 41.373 42.441 41.5655 42.6224C41.7581 42.8037 41.9153 43.028 42.0274 43.2813C42.1395 43.5345 42.2041 43.8111 42.2171 44.0938L42.6963 49.0391C42.7365 49.3176 42.7254 49.6024 42.6639 49.8758C42.6023 50.1493 42.4915 50.4055 42.3384 50.6284C42.1853 50.8514 41.9932 51.0364 41.7741 51.1719C41.5549 51.3074 41.3134 51.3904 41.0645 51.4159H21.1192C20.6628 51.3886 20.2323 51.1684 19.9131 50.7992C19.5939 50.4299 19.4095 49.9385 19.3964 49.4227V49.4227Z" stroke="#222221" stroke-width="2" stroke-linecap="round" stroke-linejoin="round"/>
<path d="M42.7502 48.1213L54.2577 50.3474L54.5124 48.6624L45.2252 46.861L54.5488 45.7035L54.385 44.0048L45.5103 45.1076L53.8876 41.2239L53.3174 39.6417L42.5137 44.6418" stroke="#222221" stroke-width="2" stroke-linecap="round" stroke-linejoin="round"/>
<path d="M20.3604 36.5594V34.9498H47.3485V36.8745C47.3506 38.9471 46.964 40.9967 46.2141 42.8884" stroke="#222221" stroke-width="2" stroke-linecap="round" stroke-linejoin="round"/>
<path d="M46.4751 34.8265C46.6285 34.5845 46.7357 34.3092 46.79 34.018C46.8443 33.7268 46.8445 33.426 46.7906 33.1347C46.7025 32.5574 46.456 32.0259 46.0859 31.6154C45.7158 31.2049 45.2408 30.9361 44.7281 30.847C44.2948 30.7692 43.851 30.8213 43.4412 30.998C43.0313 31.1747 42.6697 31.4698 42.3926 31.8538C42.5783 31.3762 42.6393 30.8487 42.5685 30.3333C42.4805 29.756 42.234 29.2245 41.8639 28.814C41.4938 28.4035 41.0188 28.1347 40.5061 28.0455C40.1694 27.9851 39.8253 28.0025 39.4948 28.0967C39.1642 28.1909 38.8541 28.3599 38.5831 28.5935C38.4756 27.9343 38.1628 27.3403 37.7013 26.9187C37.2398 26.4972 36.6599 26.276 36.0666 26.295C35.4732 26.314 34.9054 26.5721 34.4658 27.0225C34.0262 27.4729 33.7438 28.086 33.6696 28.751C33.3973 28.3094 33.0187 27.9651 32.5785 27.759C32.1383 27.5528 31.655 27.4934 31.1858 27.5878C30.7167 27.6823 30.2813 27.9265 29.9313 28.2917C29.5813 28.6569 29.3313 29.1277 29.211 29.6483C28.9873 29.0883 28.6073 28.6265 28.129 28.3337C27.6507 28.041 27.1005 27.9334 26.5629 28.0274C26.0253 28.1215 25.5298 28.412 25.1523 28.8545C24.7749 29.2969 24.5364 29.8669 24.4733 30.4771C24.289 30.3865 24.0955 30.322 23.8971 30.2853C23.5132 30.2122 23.1195 30.2428 22.7481 30.3747C22.3768 30.5066 22.0384 30.7361 21.7608 31.0442C21.4832 31.3523 21.2742 31.7304 21.151 32.1473C21.0278 32.5643 20.9939 33.0083 21.0521 33.4429C21.1249 33.9731 21.3361 34.4668 21.6587 34.8608" stroke="#222221" stroke-width="2" stroke-linecap="round" stroke-linejoin="round"/>
<path d="M17.8613 16.052H23.8486" stroke="#222221" stroke-width="2" stroke-linecap="round" stroke-linejoin="round"/>
<path d="M41.2158 37.8539H47.2031" stroke="#222221" stroke-width="2" stroke-linecap="round" stroke-linejoin="round"/>
</svg>
