<svg width="56" height="62" viewBox="0 0 56 62" fill="none" xmlns="http://www.w3.org/2000/svg">
<path d="M17.703 31C17.703 43.4269 7.96607 62 24.9306 62C41.895 62 55.6475 48.1208 55.6475 31C55.6475 13.8792 41.895 0 24.9306 0C7.96607 0 17.703 18.5731 17.703 31Z" fill="#4986C5" fill-opacity="0.6"/>
<path d="M39.8058 54.7058H7.05655C5.82125 54.7065 4.63424 54.2151 3.747 53.3357C2.85976 52.4564 2.34199 51.2582 2.30339 49.9951L1.54883 25.0978C1.54883 25.0978 6.79513 28.2404 10.6571 28.289C13.1465 28.3194 17.9353 26.5688 22.2904 26.4655C27.2099 26.35 33.6267 27.7298 36.4489 27.5292C39.6157 27.3043 45.3135 25.0978 45.3135 25.0978L44.559 49.9707C44.5264 51.2382 44.0113 52.4425 43.1234 53.327C42.2356 54.2115 41.0451 54.7063 39.8058 54.7058Z" stroke="#222221" stroke-width="2" stroke-linecap="round" stroke-linejoin="round"/>
<path d="M43.9295 25.578C45.9793 16.8676 45.1653 9.7741 41.6955 8.55841C37.6494 7.13606 31.5119 14.5882 27.9945 25.1282C27.7806 25.7786 27.7272 26.0521 27.543 26.6965" stroke="#222221" stroke-width="2" stroke-linecap="round" stroke-linejoin="round"/>
<path d="M29.3732 21.5054V18.1197C29.3732 17.2831 29.0484 16.4806 28.4701 15.889C27.8918 15.2974 27.1075 14.965 26.2896 14.965H25.1429V12.0048H25.6658C25.9809 12.0048 26.2832 11.8768 26.506 11.6488C26.7289 11.4208 26.8541 11.1116 26.8541 10.7891V8.50974C26.8541 8.18732 26.7289 7.8781 26.506 7.65012C26.2832 7.42213 25.9809 7.29405 25.6658 7.29405H19.7243C19.4092 7.29405 19.1069 7.42213 18.8841 7.65012C18.6612 7.8781 18.536 8.18732 18.536 8.50974V10.7891C18.536 11.1116 18.6612 11.4208 18.8841 11.6488C19.1069 11.8768 19.4092 12.0048 19.7243 12.0048H20.2472V14.9711H18.9401C18.5351 14.9711 18.1341 15.0527 17.76 15.2112C17.3859 15.3698 17.046 15.6022 16.7596 15.8951C16.4733 16.188 16.2461 16.5358 16.0912 16.9186C15.9362 17.3013 15.8564 17.7115 15.8564 18.1258V22.8488" stroke="#222221" stroke-width="2" stroke-linecap="round" stroke-linejoin="round"/>
<path d="M19.8242 12.017H25.2309" stroke="#222221" stroke-width="2" stroke-linecap="round" stroke-linejoin="round"/>
<path d="M2.19043 25.3409C2.32829 24.6056 2.6819 23.9307 3.20414 23.4062C3.72639 22.8817 4.39246 22.5325 5.11362 22.405C6.22867 22.1511 7.25542 21.5923 8.08435 20.7882C10.9778 17.9799 13.9188 20.0709 15.7666 22.7515C16.6225 24.0126 17.0063 25.5466 16.848 27.0733" stroke="#222221" stroke-width="2" stroke-linecap="round" stroke-linejoin="round"/>
<path d="M6.62291 21.706C6.62291 21.706 4.34734 18.843 4.2998 17.907" stroke="#222221" stroke-width="2" stroke-linecap="round" stroke-linejoin="round"/>
<path d="M7.31244 15.8829C6.86683 16.8676 4.25854 17.9374 4.25854 17.9374C4.25854 17.9374 3.38514 15.196 3.83075 14.2295C4.27636 13.2631 6.89654 12.1568 6.89654 12.1568C6.89654 12.1568 7.75805 14.9043 7.31244 15.8829Z" stroke="#222221" stroke-width="2" stroke-linecap="round" stroke-linejoin="round"/>
<path d="M16.0039 18.6181H21.8741" stroke="#222221" stroke-width="2" stroke-linecap="round" stroke-linejoin="round"/>
<path d="M35.623 18.6973L40.804 15.8708" stroke="#222221" stroke-width="2" stroke-linecap="round" stroke-linejoin="round"/>
<path d="M34.2861 23.4444L39.4671 20.624" stroke="#222221" stroke-width="2" stroke-linecap="round" stroke-linejoin="round"/>
<path d="M6.10547 48.1958H11.9697" stroke="#222221" stroke-width="2" stroke-linecap="round" stroke-linejoin="round"/>
<path d="M6.17773 50.8459H17.0446" stroke="#222221" stroke-width="2" stroke-linecap="round" stroke-linejoin="round"/>
</svg>
