<svg width="56" height="62" viewBox="0 0 56 62" fill="none" xmlns="http://www.w3.org/2000/svg">
<path d="M17.8447 30.8037C17.8447 43.1618 8.16934 61.6074 25.0264 61.6074C41.8835 61.6074 55.5488 47.8161 55.5488 30.8037C55.5488 13.7913 41.8835 0 25.0264 0C8.16934 0 17.8447 18.4456 17.8447 30.8037Z" fill="#E61203" fill-opacity="0.6"/>
<path d="M43.5435 16.6271C46.0966 20.0707 47.6487 24.1519 48.0286 28.421C48.4085 32.69 47.6015 36.9809 45.6966 40.8207C43.7917 44.6606 40.8629 47.9001 37.233 50.1821C33.6032 52.4641 29.4133 53.7 25.1254 53.7536C20.8374 53.8071 16.618 52.6762 12.9322 50.4855C9.24645 48.2948 6.23756 45.1294 4.23727 41.3384C2.23699 37.5473 1.32301 33.2778 1.5961 29.0007C1.8692 24.7235 3.31876 20.6048 5.78496 17.0986" stroke="#222221" stroke-width="2" stroke-miterlimit="10" stroke-linecap="round"/>
<path d="M10.8838 11.8594C14.8966 8.85673 19.7718 7.22846 24.7846 7.21663C29.7974 7.20481 34.6802 8.81006 38.7072 11.7937" stroke="#222221" stroke-width="2" stroke-miterlimit="10" stroke-linecap="round"/>
<path d="M24.8373 49.8832C35.5543 49.8832 44.242 41.2003 44.242 30.4893C44.242 19.7784 35.5543 11.0955 24.8373 11.0955C14.1204 11.0955 5.43262 19.7784 5.43262 30.4893C5.43262 41.2003 14.1204 49.8832 24.8373 49.8832Z" stroke="#222221" stroke-width="2" stroke-miterlimit="10"/>
<path d="M24.8372 46.0044C33.4108 46.0044 40.361 39.0581 40.361 30.4894C40.361 21.9206 33.4108 14.9743 24.8372 14.9743C16.2637 14.9743 9.31348 21.9206 9.31348 30.4894C9.31348 39.0581 16.2637 46.0044 24.8372 46.0044Z" stroke="#222221" stroke-width="2" stroke-miterlimit="10"/>
<path d="M24.8379 30.4893L44.3441 10.994" stroke="#222221" stroke-width="2" stroke-miterlimit="10" stroke-linecap="round"/>
<path d="M38.1163 17.1881L37.6924 12.9692L44.0273 6.64384L44.4452 10.8627L38.1163 17.1881Z" stroke="#222221" stroke-width="2" stroke-linecap="round" stroke-linejoin="round"/>
<path d="M48.6605 11.2745L44.4393 10.8568L38.1104 17.1821L42.3316 17.5999L48.6605 11.2745Z" stroke="#222221" stroke-width="2" stroke-linecap="round" stroke-linejoin="round"/>
<path d="M24.8379 26.6464V34.3324" stroke="#222221" stroke-width="2" stroke-miterlimit="10" stroke-linecap="round"/>
<path d="M24.8379 44.7632V47.1501" stroke="#222221" stroke-width="2" stroke-miterlimit="10" stroke-linecap="round"/>
<path d="M24.8379 13.7927V16.1796" stroke="#222221" stroke-width="2" stroke-miterlimit="10" stroke-linecap="round"/>
<path d="M28.6824 30.4892H20.9922" stroke="#222221" stroke-width="2" stroke-miterlimit="10" stroke-linecap="round"/>
<path d="M10.4957 30.4892H8.10742" stroke="#222221" stroke-width="2" stroke-miterlimit="10" stroke-linecap="round"/>
<path d="M41.4781 30.4892H39.0898" stroke="#222221" stroke-width="2" stroke-miterlimit="10" stroke-linecap="round"/>
</svg>
