<svg width="44" height="51" viewBox="0 0 44 51" fill="none" xmlns="http://www.w3.org/2000/svg">
    <path d="M38.7639 13.7647H4.35214C2.89021 13.7647 1.70508 14.9498 1.70508 16.4118V46.4118C1.70508 47.8737 2.89021 49.0588 4.35214 49.0588H38.7639C40.2258 49.0588 41.411 47.8737 41.411 46.4118V16.4118C41.411 14.9498 40.2258 13.7647 38.7639 13.7647Z"
        fill="currentColor" />
    <path d="M29.2717 42.6312C28.5407 42.6312 27.9481 43.2237 27.9481 43.9548C27.9481 44.6857 28.5407 45.2783 29.2717 45.2783V42.6312ZM37.4081 45.2783C38.1391 45.2783 38.7316 44.6857 38.7316 43.9548C38.7316 43.2237 38.1391 42.6312 37.4081 42.6312V45.2783ZM7.02975 42.6312C6.29881 42.6312 5.70622 43.2237 5.70622 43.9548C5.70622 44.6857 6.29881 45.2783 7.02975 45.2783V42.6312ZM23.8652 45.2783C24.5962 45.2783 25.1887 44.6857 25.1887 43.9548C25.1887 43.2237 24.5962 42.6312 23.8652 42.6312V45.2783ZM40.5626 49.0492L40.698 47.7326C40.653 47.728 40.6078 47.7257 40.5626 47.7257V49.0492ZM3.44863 49.0492V47.7257C3.40063 47.7257 3.35272 47.7282 3.30498 47.7334L3.44863 49.0492ZM1.70634 47.725L0.383248 47.692C0.381483 47.76 0.385101 47.8279 0.393837 47.8953L1.70634 47.725ZM2.51051 15.4159L3.8336 15.4488C3.83387 15.4379 3.83404 15.4269 3.83404 15.4159H2.51051ZM41.4904 15.4159L42.8136 15.383L42.8133 15.3751L41.4904 15.4159ZM42.2946 47.725L43.607 47.8963C43.6158 47.8286 43.6194 47.7603 43.6177 47.692L42.2946 47.725ZM8.00342 13.7715C8.00342 14.5025 8.59601 15.095 9.32695 15.095C10.0579 15.095 10.6505 14.5025 10.6505 13.7715H8.00342ZM21.8286 1.41176V0.0882263V1.41176ZM33.0066 13.9455C33.0066 14.6764 33.5992 15.269 34.3301 15.269C35.0611 15.269 35.6536 14.6764 35.6536 13.9455H33.0066ZM29.2717 45.2783H37.4081V42.6312H29.2717V45.2783ZM7.02975 45.2783H23.8652V42.6312H7.02975V45.2783ZM40.5626 47.7257H3.44863V50.3727H40.5626V47.7257ZM3.30498 47.7334C3.2246 47.7423 3.14943 47.7189 3.09684 47.6788L1.4951 49.7863C2.09475 50.2421 2.84793 50.4461 3.59228 50.3649L3.30498 47.7334ZM3.09684 47.6788C3.04566 47.64 3.02386 47.5929 3.01884 47.5546L0.393837 47.8953C0.492131 48.6524 0.893955 49.3293 1.4951 49.7863L3.09684 47.6788ZM3.02942 47.7579L3.8336 15.4488L1.18734 15.383L0.383248 47.692L3.02942 47.7579ZM3.83404 15.4159C3.83404 15.6443 3.69984 15.7012 3.78198 15.6438C3.85513 15.5928 4.01819 15.5247 4.24248 15.5247V12.8777C3.52857 12.8777 2.8256 13.0834 2.26734 13.473C1.71798 13.8563 1.18698 14.5205 1.18698 15.4159H3.83404ZM4.24248 15.5247H39.7584V12.8777H4.24248V15.5247ZM39.7584 15.5247C39.9805 15.5247 40.1369 15.5916 40.207 15.6409C40.2839 15.695 40.1736 15.6522 40.1676 15.4568L42.8133 15.3751C42.7867 14.5126 42.2795 13.8625 41.73 13.4759C41.1739 13.0847 40.4745 12.8777 39.7584 12.8777V15.5247ZM40.1673 15.4488L40.9715 47.7579L43.6177 47.692L42.8136 15.383L40.1673 15.4488ZM40.9822 47.5536C40.9772 47.5917 40.9555 47.6386 40.9048 47.6773L42.5126 49.7802C43.1096 49.3237 43.5086 48.6497 43.607 47.8963L40.9822 47.5536ZM40.9048 47.6773C40.8526 47.7172 40.7781 47.7408 40.698 47.7326L40.4272 50.3658C41.1686 50.442 41.917 50.2355 42.5126 49.7802L40.9048 47.6773ZM10.6505 13.7715V13.6897H8.00342V13.7715H10.6505ZM10.6505 13.6897C10.6505 10.7921 11.8222 8.0084 13.916 5.95217L12.0612 4.06358C9.46592 6.61243 8.00342 10.0745 8.00342 13.6897H10.6505ZM13.916 5.95217C16.0105 3.89514 18.8563 2.73529 21.8286 2.73529V0.0882263C18.1695 0.0882263 14.6557 1.51552 12.0612 4.06358L13.916 5.95217ZM21.8286 2.73529C24.8008 2.73529 27.6466 3.89514 29.7412 5.95217L31.5959 4.06358C29.0014 1.51552 25.4876 0.0882263 21.8286 0.0882263V2.73529ZM29.7412 5.95217C31.8348 8.0084 33.0066 10.7921 33.0066 13.6897H35.6536C35.6536 10.0745 34.1912 6.61243 31.5959 4.06358L29.7412 5.95217ZM33.0066 13.6897V13.9455H35.6536V13.6897H33.0066Z"
        fill="#424041" />
</svg>
