<svg width="34" height="37" viewBox="0 0 34 37" fill="none" xmlns="http://www.w3.org/2000/svg">
<path d="M0.308818 0.188455C0.662611 -0.10929 1.17779 -0.0475342 1.45951 0.32639C1.54865 0.444711 1.64183 0.559302 1.73882 0.669956C1.79624 0.701619 1.851 0.741041 1.90177 0.788309C3.34878 2.13547 5.20254 2.89375 7.13063 2.92717C7.58282 2.93501 7.94338 3.32879 7.93596 3.80672C7.92855 4.28464 7.55596 4.66572 7.10377 4.65788C5.98703 4.63852 4.89104 4.41685 3.86051 4.01114C3.93737 4.57654 4.00571 5.25 4.06782 5.99736C4.23776 8.04201 4.36832 10.7325 4.48728 13.4929C4.5216 14.2891 4.55495 15.0911 4.58801 15.8862C4.66993 17.8563 4.75009 19.784 4.8387 21.4739C4.94194 23.4429 5.05412 25.0216 5.18301 25.9602C5.39872 26.0116 5.67499 26.0768 6.00027 26.1517C6.83297 26.3437 7.98536 26.6 9.26438 26.8576C11.8436 27.3771 14.8658 27.8867 16.8345 27.9088C18.7978 27.9308 21.8617 27.453 24.4888 26.9531C25.7908 26.7053 26.9662 26.4559 27.8162 26.2685C28.241 26.1748 28.5842 26.0967 28.8207 26.0421L28.8474 26.0359C29.2879 23.7758 29.5416 21.4792 29.6057 19.1719C29.6189 18.6941 29.9961 18.3181 30.4482 18.3321C30.9002 18.3462 31.256 18.7448 31.2427 19.2226C31.1728 21.7398 30.8866 24.2448 30.3876 26.7067C30.4742 26.8752 30.5933 27.111 30.734 27.4005C31.0297 28.009 31.4227 28.8589 31.8116 29.8237C32.5709 31.7078 33.3832 34.1931 33.2959 36.1748C33.2749 36.6522 32.8916 37.0213 32.4398 36.999C31.9881 36.9768 31.6389 36.5717 31.6599 36.0943C31.7282 34.5437 31.0625 32.382 30.3048 30.5021C29.9352 29.5848 29.56 28.7735 29.2771 28.1913C29.1975 28.0274 29.1253 27.882 29.0629 27.7579C28.8302 27.8113 28.5209 27.8813 28.1507 27.963C27.2902 28.1527 26.0995 28.4053 24.7791 28.6566C22.1613 29.1548 18.9552 29.6636 16.8171 29.6396C14.6846 29.6157 11.5301 29.0761 8.95778 28.558C7.66106 28.2968 6.49405 28.0372 5.65127 27.8429C5.35695 27.7751 5.10199 27.7152 4.89465 27.6659C4.84105 27.773 4.78135 27.8938 4.71674 28.0268C4.43384 28.609 4.05869 29.4204 3.68904 30.3376C2.93138 32.2176 2.26563 34.3793 2.33393 35.9298C2.35496 36.4073 2.00578 36.8124 1.55402 36.8346C1.10225 36.8568 0.718978 36.4878 0.697946 36.0103C0.610657 34.0287 1.42298 31.5433 2.18228 29.6593C2.57112 28.6945 2.96418 27.8446 3.25987 27.2361C3.40327 26.9409 3.52421 26.7017 3.61128 26.5325C3.44004 25.4888 3.31383 23.6748 3.20345 21.5697C3.1143 19.8693 3.03349 17.926 2.95138 15.9516C2.91842 15.1587 2.88524 14.3608 2.85123 13.5717C2.73214 10.8085 2.60287 8.15228 2.43635 6.14883C2.35284 5.14406 2.26175 4.32648 2.16204 3.74969C2.11396 3.47156 2.06831 3.27617 2.02932 3.15249C1.32366 2.68488 0.697684 2.09399 0.178309 1.40462C-0.103406 1.03069 -0.0449751 0.4862 0.308818 0.188455Z" fill="white"/>
<path d="M17.916 22.512C17.916 22.9899 17.5493 23.3774 17.0971 23.3774C16.6448 23.3774 16.2782 22.9899 16.2782 22.512C16.2782 22.034 16.6448 21.6465 17.0971 21.6465C17.5493 21.6465 17.916 22.034 17.916 22.512Z" fill="white"/>
<path d="M33.6912 0.352897C34.045 0.650641 34.1034 1.19514 33.8217 1.56906C33.7607 1.65002 33.6982 1.72962 33.6343 1.80782C33.596 1.97405 33.5108 2.12996 33.3801 2.25163C32.9399 2.66146 32.4684 3.02594 31.972 3.34243C31.9283 3.51083 31.8825 3.77039 31.8385 4.12981C31.7491 4.86169 31.6814 5.88751 31.6264 7.12286C31.5549 8.72678 31.5065 10.6346 31.4557 12.6392L31.4556 12.6405L31.4555 12.6475C31.428 13.7285 31.3999 14.8376 31.367 15.9422C31.3528 16.42 30.9749 16.7951 30.5228 16.7801C30.0708 16.765 29.7159 16.3656 29.7301 15.8878C29.7624 14.8009 29.7904 13.6992 29.8178 12.6198C29.869 10.6018 29.9182 8.66166 29.9904 7.04143C30.0386 5.9602 30.0978 4.99934 30.1772 4.23752C29.194 4.60385 28.1541 4.80397 27.0956 4.82232C26.6434 4.83016 26.2708 4.44908 26.2634 3.97116C26.256 3.49323 26.6165 3.09945 27.0687 3.09161C28.396 3.0686 29.688 2.70211 30.8364 2.03647C30.8791 1.99778 30.9271 1.96088 30.9807 1.92776C31.5788 1.55271 32.1073 1.06582 32.5405 0.490832C32.8222 0.116907 33.3374 0.0551518 33.6912 0.352897Z" fill="white"/>
<path d="M9.88346 22.4655C9.87893 19.9351 9.87216 16.1602 10.7201 12.93C11.1717 11.2097 11.8473 9.72317 12.8314 8.67456C13.7929 7.64996 15.0942 6.99306 16.9254 6.99306C18.8646 6.99306 20.2132 7.65836 21.1869 8.67953C22.1826 9.72375 22.8452 11.2034 23.2726 12.9197C24.0207 15.9234 23.9929 19.3868 23.9727 21.9102V21.9108C23.9697 22.2921 23.9668 22.6524 23.9668 22.9859C23.9668 23.4639 24.3334 23.8514 24.7857 23.8514C25.2379 23.8514 25.6046 23.4639 25.6046 22.9859C25.6046 22.6738 25.6076 22.329 25.6109 21.9572C25.6329 19.4555 25.6658 15.729 24.8564 12.4791C24.3885 10.6 23.6209 8.79369 22.3405 7.45086C21.0381 6.08499 19.2649 5.26211 16.9254 5.26211C14.671 5.26211 12.9469 6.09339 11.6686 7.45563C10.4127 8.79385 9.63402 10.5928 9.14198 12.4672C8.23062 15.9389 8.23977 19.9408 8.24549 22.4422L8.2455 22.4431C8.24593 22.6306 8.24634 22.8096 8.24634 22.9794C8.24634 23.4573 8.61296 23.8448 9.06521 23.8448C9.51746 23.8448 9.88409 23.4573 9.88409 22.9794C9.88409 22.8149 9.88378 22.6437 9.88346 22.4664V22.4655Z" fill="white"/>
<path d="M12.9089 11.157C13.3604 11.1302 13.747 11.4954 13.7723 11.9727C13.789 12.2872 13.919 12.583 14.1355 12.7994C14.3521 13.0159 14.6388 13.1364 14.9369 13.1364C15.2349 13.1364 15.5217 13.0159 15.7383 12.7994C15.9548 12.583 16.0848 12.2872 16.1015 11.9727C16.1268 11.4954 16.5133 11.1302 16.9649 11.157C17.3675 11.1808 17.6859 11.5083 17.7322 11.9173C17.7428 11.9814 17.7466 12.0478 17.7431 12.1155C17.7342 12.283 17.7577 12.4506 17.8122 12.6081C17.8667 12.7656 17.9511 12.9096 18.0601 13.0315C18.1691 13.1534 18.3005 13.2504 18.4462 13.3168C18.592 13.3831 18.749 13.4173 18.9076 13.4173C19.0663 13.4173 19.2233 13.3831 19.369 13.3168C19.5148 13.2504 19.6462 13.1534 19.7552 13.0315C19.8642 12.9096 19.9485 12.7656 20.003 12.6081C20.0576 12.4506 20.0811 12.283 20.0722 12.1155C20.0469 11.6383 20.3924 11.2297 20.844 11.203C21.2955 11.1762 21.6821 11.5414 21.7074 12.0187C21.7288 12.4212 21.6722 12.8241 21.5411 13.2027C21.4101 13.5814 21.2073 13.9278 20.9452 14.2207C20.6831 14.5137 20.3673 14.747 20.0169 14.9065C19.6666 15.066 19.2891 15.1483 18.9076 15.1483C18.5262 15.1483 18.1487 15.066 17.7984 14.9065C17.448 14.747 17.1321 14.5137 16.8701 14.2207C16.8428 14.1903 16.8163 14.1593 16.7903 14.1277C16.2791 14.6036 15.6204 14.8674 14.9369 14.8674C14.2203 14.8674 13.531 14.5775 13.0103 14.0572C12.4897 13.5369 12.1772 12.8257 12.1371 12.0695C12.1118 11.5923 12.4573 11.1837 12.9089 11.157Z" fill="white"/>
<path d="M13.0646 15.5969C13.5162 15.5701 13.9027 15.9353 13.928 16.4125C13.9447 16.727 14.0747 17.0229 14.2913 17.2393C14.5078 17.4557 14.7946 17.5763 15.0926 17.5763C15.3907 17.5763 15.6774 17.4557 15.894 17.2393C16.1106 17.0229 16.2405 16.727 16.2572 16.4125C16.2825 15.9353 16.6691 15.5701 17.1206 15.5969C17.5245 15.6208 17.8436 15.9502 17.8883 16.361C17.8985 16.4239 17.9021 16.489 17.8986 16.5554C17.8897 16.7228 17.9132 16.8904 17.9678 17.0479C18.0223 17.2054 18.1066 17.3495 18.2156 17.4713C18.3246 17.5932 18.456 17.6903 18.6018 17.7566C18.7475 17.8229 18.9045 17.8572 19.0632 17.8572C19.2218 17.8572 19.3789 17.8229 19.5246 17.7566C19.6703 17.6903 19.8017 17.5932 19.9107 17.4713C20.0197 17.3495 20.1041 17.2054 20.1586 17.0479C20.2131 16.8904 20.2366 16.7228 20.2278 16.5554C20.2024 16.0782 20.548 15.6696 20.9995 15.6428C21.4511 15.6161 21.8376 15.9813 21.8629 16.4585C21.8843 16.8611 21.8277 17.264 21.6967 17.6426C21.5656 18.0212 21.3628 18.3676 21.1007 18.6606C20.8387 18.9535 20.5228 19.1869 20.1724 19.3464C19.8221 19.5058 19.4446 19.5881 19.0632 19.5881C18.6817 19.5881 18.3043 19.5058 17.9539 19.3464C17.6036 19.1869 17.2877 18.9535 17.0256 18.6606C16.9984 18.6302 16.9719 18.5992 16.946 18.5677C16.4348 19.0435 15.7761 19.3073 15.0926 19.3073C14.3761 19.3073 13.6867 19.0174 13.1661 18.497C12.6454 17.9767 12.333 17.2655 12.2929 16.5094C12.2676 16.0322 12.6131 15.6236 13.0646 15.5969Z" fill="white"/>
</svg>
