<svg width="44" height="37" viewBox="0 0 44 37" fill="none" xmlns="http://www.w3.org/2000/svg">
<path d="M23.0395 0.702276C22.98 0.310527 22.6469 0.00727656 22.2397 0.000128706C21.7849 -0.0078539 21.4097 0.356488 21.4018 0.813909C21.3743 2.39909 20.7243 3.90895 19.5938 5.01383C18.4633 6.11871 16.944 6.72887 15.3677 6.7111L15.3585 6.71105C12.0377 6.71105 9.47806 4.43399 9.47806 1.24387C9.47806 0.786377 9.1093 0.415508 8.65442 0.415508C8.19954 0.415508 7.83078 0.786377 7.83078 1.24387C7.83078 2.40077 8.08625 3.45558 8.54033 4.37819L8.51925 4.41616L8.52075 4.42149L8.52589 4.4399C8.5305 4.45645 8.53744 4.48152 8.54655 4.51471C8.56478 4.58108 8.59166 4.67991 8.6258 4.80801C8.69409 5.06424 8.79137 5.43741 8.90651 5.90218C9.13693 6.83223 9.43819 8.12641 9.72164 9.58251C10.2942 12.5238 10.7724 16.0215 10.5022 18.5238C10.2929 20.462 9.62047 22.4413 8.88715 24.5998C8.66497 25.2537 8.43718 25.9242 8.21502 26.6149C7.2803 29.5209 6.48741 32.6935 6.96889 36.0932C7.03304 36.5461 7.45011 36.861 7.90044 36.7964C8.35078 36.7319 8.66385 36.3125 8.59971 35.8596C8.18002 32.8962 8.84344 30.0666 9.74059 27.2551C9.95691 27.3041 10.2245 27.3641 10.5342 27.4321C11.4049 27.6234 12.6106 27.8789 13.9505 28.136C16.0165 28.5324 18.4452 28.9412 20.4598 29.1145C21.0586 29.1812 21.7028 29.2186 22.3945 29.2186L22.3969 29.2186C22.9124 29.217 23.4252 29.1852 23.9328 29.1241C25.9197 28.9666 28.2808 28.589 30.3027 28.2175C31.6673 27.9667 32.8976 27.7146 33.7868 27.5253C34.0577 27.4676 34.297 27.4157 34.499 27.3714C35.3958 30.3111 36.0396 33.2422 35.6201 36.0484C35.5525 36.5008 35.8623 36.9227 36.3122 36.9907C36.762 37.0587 37.1815 36.7471 37.2491 36.2947C37.7454 32.9748 36.9229 29.6076 35.9616 26.5215C35.7179 25.7392 35.4675 24.9797 35.2245 24.2424C34.4848 21.9989 33.8129 19.961 33.6043 18.1102C33.5467 17.5263 33.5332 16.9387 33.5639 16.3527C33.5879 15.8959 33.239 15.506 32.7848 15.4819C32.3305 15.4578 31.9429 15.8086 31.9189 16.2655C31.8837 16.9372 31.8993 17.6106 31.9657 18.2799L31.9668 18.2907C32.1958 20.3312 32.9476 22.6086 33.7035 24.8986L33.7037 24.899C33.8013 25.1946 33.8989 25.4905 33.9956 25.7861C33.8318 25.8218 33.6476 25.8615 33.4456 25.9045C32.6412 26.0758 31.5547 26.2989 30.3439 26.5252C30.464 26.4339 30.5828 26.3404 30.7001 26.2448C31.0535 25.9567 31.1077 25.435 30.8213 25.0796C30.5348 24.7243 30.0161 24.6697 29.6628 24.9578C27.9631 26.3435 25.9163 27.2116 23.7627 27.476C23.1526 27.5235 22.5872 27.5482 22.0897 27.543C21.6487 27.5384 21.1568 27.5114 20.6298 27.4666C18.7976 27.2611 17.4906 26.7552 16.611 26.2696C16.0386 25.9536 15.6406 25.6425 15.3924 25.4194C15.2683 25.3078 15.1815 25.2182 15.1293 25.1609C15.1031 25.1323 15.0856 25.1117 15.0764 25.1006C15.0725 25.096 15.0701 25.093 15.0691 25.0918C14.7912 24.7334 14.2773 24.6669 13.9182 24.9442C13.5574 25.2227 13.4893 25.7427 13.7663 26.1056L14.4197 25.6013C13.7663 26.1056 13.7666 26.1061 13.767 26.1065L13.7677 26.1075L13.7693 26.1095L13.7731 26.1145L13.7833 26.1273C13.7912 26.1372 13.8013 26.1497 13.8136 26.1646C13.8384 26.1943 13.8724 26.2337 13.9158 26.2813C13.9665 26.3369 14.0303 26.4037 14.1077 26.4795C12.8463 26.2357 11.7133 25.9953 10.8858 25.8135C10.6529 25.7624 10.4444 25.7159 10.2642 25.6754C10.3117 25.5354 10.3593 25.3953 10.407 25.2552C11.1536 23.0615 11.9088 20.8422 12.1398 18.7027C12.4393 15.9294 11.9127 12.2156 11.3382 9.2642C11.1818 8.46038 11.0201 7.70538 10.8675 7.03133C12.1302 7.88754 13.6896 8.36688 15.3539 8.36776C17.3636 8.3892 19.3003 7.61074 20.7418 6.20198C21.3444 5.61298 21.8401 4.9338 22.2155 4.1951C22.6007 4.98141 23.1207 5.70267 23.7599 6.32274C25.2047 7.72425 27.1411 8.49535 29.1481 8.4685C30.7621 8.46743 32.2774 8.01635 33.5191 7.20794C33.024 9.2148 32.5965 11.2382 32.2372 13.2747C32.1578 13.7252 32.4565 14.1551 32.9044 14.235C33.3522 14.315 33.7797 14.0146 33.8592 13.5641C34.3902 10.5534 35.0734 7.57187 35.9061 4.63107C35.9136 4.6043 35.9198 4.57746 35.9246 4.55063C36.4011 3.61111 36.67 2.53159 36.67 1.3446C36.67 0.887112 36.3013 0.516243 35.8464 0.516243C35.3915 0.516243 35.0227 0.887112 35.0227 1.3446C35.0227 4.53472 32.4631 6.81178 29.1423 6.81178L29.1307 6.81186C27.5563 6.83414 26.0368 6.22973 24.9035 5.13032C23.7702 4.03091 23.1148 2.52559 23.0801 0.942334C23.0783 0.858563 23.0642 0.777982 23.0395 0.702276Z" fill="white"/>
<path d="M22.8201 20.9237C22.8201 21.2818 22.5314 21.5721 22.1753 21.5721C21.8192 21.5721 21.5306 21.2818 21.5306 20.9237C21.5306 20.5656 21.8192 20.2753 22.1753 20.2753C22.5314 20.2753 22.8201 20.5656 22.8201 20.9237Z" fill="white"/>
<path d="M3.85327 16.3962C4.11308 16.0207 4.62639 15.9281 4.99977 16.1894L8.14837 18.3929C8.16828 18.4068 8.18744 18.4215 8.20581 18.4369C8.27341 18.4883 8.33421 18.5511 8.38524 18.6249C8.64505 19.0004 8.55298 19.5167 8.17959 19.778L5.031 21.9814C4.65761 22.2427 4.1443 22.1501 3.88449 21.7746C3.62468 21.3991 3.71675 20.8828 4.09014 20.6215L5.11946 19.9012H0.823637C0.368755 19.9012 0 19.5303 0 19.0728C0 18.6153 0.368755 18.2445 0.823637 18.2445H5.05222L4.05891 17.5493C3.68553 17.288 3.59346 16.7718 3.85327 16.3962Z" fill="white"/>
<path d="M40.14 16.3956C40.4002 16.7709 40.3086 17.2872 39.9355 17.5489L38.9435 18.2445H43.1764C43.6312 18.2445 44 18.6153 44 19.0728C44 19.5303 43.6312 19.9012 43.1764 19.9012H38.8804L39.9097 20.6215C40.2831 20.8828 40.3752 21.3991 40.1154 21.7746C39.8555 22.1501 39.3422 22.2427 38.9689 21.9814L35.8203 19.778C35.4469 19.5167 35.3548 19.0004 35.6146 18.6249C35.666 18.5506 35.7274 18.4873 35.7956 18.4357C35.8133 18.4209 35.8318 18.4068 35.851 18.3933L38.9933 16.1899C39.3665 15.9282 39.8799 16.0203 40.14 16.3956Z" fill="white"/>
</svg>
