<svg width="42" height="37" viewBox="0 0 42 37" fill="none" xmlns="http://www.w3.org/2000/svg">
<path d="M22.9212 0.847229C22.9304 0.388662 22.5655 0.00942111 22.1062 0.000172304C21.6468 -0.00907651 21.2669 0.355169 21.2576 0.813737C21.2255 2.40396 20.564 3.91681 19.4177 5.02157C18.2714 6.12633 16.7336 6.73315 15.1404 6.70937L15.1279 6.70928C11.7736 6.70928 9.18812 4.4264 9.18812 1.22812C9.18812 0.769456 8.81564 0.397638 8.35617 0.397638C7.89669 0.397638 7.52421 0.769456 7.52421 1.22812C7.52421 2.9513 8.09379 4.44857 9.04461 5.62093C9.06249 5.67594 9.08576 5.7482 9.11372 5.83646C9.18511 6.06182 9.287 6.39123 9.40772 6.80364C9.64933 7.62902 9.96553 8.78396 10.2636 10.1007C10.8655 12.7599 11.3703 15.9822 11.0954 18.4819C10.9609 19.7042 10.5802 20.9814 10.074 22.3409C9.76657 23.1664 9.42944 23.9817 9.08113 24.824C8.84617 25.3922 8.60609 25.9728 8.36666 26.5771C7.20884 29.4991 6.17156 32.7222 6.67303 36.1688C6.73908 36.6227 7.16122 36.9372 7.61593 36.8713C8.07063 36.8054 8.3857 36.384 8.31966 35.9301C7.89232 32.993 8.74219 30.1664 9.85913 27.3268C10.0722 27.3747 10.336 27.4333 10.6415 27.4998C11.4977 27.6862 12.6834 27.9353 14.0008 28.1859C16.6141 28.6831 19.8191 29.2009 21.9856 29.2238C24.1578 29.2469 27.4152 28.7586 30.0747 28.2806C31.4163 28.0394 32.626 27.797 33.5002 27.615C33.9375 27.5239 34.2912 27.4478 34.536 27.3944L34.7003 27.3584C35.6922 30.1539 36.3636 33.0279 35.8619 36.0329C35.7863 36.4853 36.0925 36.9132 36.5457 36.9886C36.9989 37.064 37.4276 36.7583 37.5031 36.3059C38.1686 32.3203 36.9974 28.6228 35.7258 25.3477C35.5597 24.9201 35.0778 24.7078 34.6494 24.8735C34.2754 25.0182 34.0658 25.4031 34.129 25.7831C33.8915 25.8347 33.5618 25.9054 33.1603 25.989C32.2968 26.1689 31.1026 26.4081 29.7798 26.6459C27.1108 27.1256 23.9979 27.5841 22.0033 27.563C20.0031 27.5418 16.9327 27.0528 14.3123 26.5543C13.0128 26.3071 11.842 26.0612 10.996 25.877C10.8119 25.8369 10.6432 25.7997 10.492 25.7662L10.5984 25.5085C10.9588 24.6362 11.3204 23.7606 11.6336 22.9195C12.158 21.5112 12.5929 20.0854 12.7493 18.6631C13.0561 15.8737 12.4955 12.4245 11.8866 9.73462C11.6978 8.90083 11.5022 8.13068 11.3218 7.46361C12.4475 8.0486 13.7493 8.36928 15.1218 8.37024C17.1525 8.39889 19.1122 7.62473 20.5734 6.21649C21.1824 5.62954 21.6842 4.95233 22.0654 4.21531C22.4521 4.98903 22.9705 5.69914 23.6055 6.31112C25.0667 7.71937 27.0264 8.49354 29.0571 8.46487C30.4131 8.46392 31.7001 8.15089 32.8164 7.57923C32.2417 9.6482 31.8046 11.7538 31.5085 13.8823C31.4453 14.3366 31.7629 14.756 32.218 14.8191C32.6732 14.8822 33.0933 14.5651 33.1565 14.1108C33.5526 11.2645 34.2095 8.46062 35.119 5.73435C36.079 4.55922 36.6547 3.05515 36.6547 1.32275C36.6547 0.86409 36.2822 0.492272 35.8227 0.492272C35.3632 0.492272 34.9908 0.86409 34.9908 1.32275C34.9908 4.52103 32.4052 6.80392 29.0509 6.80392L29.0385 6.80401C27.4453 6.82779 25.9075 6.22097 24.7612 5.1162C23.6149 4.01144 22.9534 2.49859 22.9213 0.908372C22.9211 0.89982 22.9208 0.891301 22.9204 0.882816L22.9212 0.847229Z" fill="white"/>
<path d="M23.1019 21.1387C23.1019 21.5973 22.7295 21.9692 22.27 21.9692C21.8105 21.9692 21.438 21.5973 21.438 21.1387C21.438 20.68 21.8105 20.3082 22.27 20.3082C22.7295 20.3082 23.1019 20.68 23.1019 21.1387Z" fill="white"/>
<path d="M5.05658 16.2119C4.67942 15.95 4.16093 16.0428 3.8985 16.4193C3.63607 16.7958 3.72907 17.3133 4.10622 17.5753L5.10955 18.2722H0.831953C0.372478 18.2722 0 18.644 0 19.1027C0 19.5614 0.372478 19.9332 0.831953 19.9332H5.16196L4.13144 20.649C3.75428 20.9109 3.66128 21.4285 3.92372 21.805C4.18615 22.1815 4.70464 22.2743 5.0818 22.0124L8.26219 19.8033C8.63934 19.5413 8.73234 19.0237 8.46991 18.6472C8.41347 18.5663 8.3452 18.4984 8.26904 18.4444C8.25858 18.4364 8.24789 18.4286 8.23697 18.421L5.05658 16.2119Z" fill="white"/>
<path fill-rule="evenodd" clip-rule="evenodd" d="M38.9905 7.39164C37.6403 7.50559 35.9879 8.11009 34.8802 9.99163C34.7659 10.1109 34.6749 10.2417 34.605 10.3531C34.5013 10.5184 34.4051 10.7052 34.3177 10.8936C34.1425 11.2709 33.9772 11.7099 33.837 12.1156C33.6957 12.5245 33.5745 12.9157 33.4889 13.2035C33.446 13.3478 33.4117 13.4671 33.388 13.5508C33.3762 13.5926 33.367 13.6256 33.3607 13.6484L33.3534 13.6749L33.3514 13.6822L33.3508 13.6842L33.3507 13.6848C33.3507 13.6849 33.3506 13.6852 34.1536 13.9025L33.3507 13.6848C33.2305 14.1275 33.4925 14.584 33.9359 14.704C34.3794 14.824 34.8363 14.5624 34.9565 14.1198L34.9569 14.1185L34.9583 14.1132L34.9645 14.0908C34.97 14.0708 34.9784 14.0407 34.9894 14.002C35.0113 13.9246 35.0434 13.8126 35.084 13.6763C35.1652 13.4032 35.279 13.0363 35.41 12.6572C35.5421 12.2748 35.6864 11.8957 35.8274 11.592C35.839 11.5669 35.8505 11.5427 35.8617 11.5194C36.9038 11.8731 37.8073 11.9718 38.5903 11.8698C39.5413 11.7459 40.2536 11.3337 40.7677 10.8347C41.2719 10.3453 41.5721 9.78712 41.7456 9.3661C41.8334 9.15309 41.8918 8.96772 41.9291 8.83211C41.9477 8.76408 41.9612 8.70792 41.9705 8.6663C41.9752 8.64547 41.9788 8.62822 41.9815 8.61488L41.9848 8.59781L41.986 8.59154L41.9864 8.58898L41.9866 8.58784C41.9867 8.58732 41.9868 8.58681 41.168 8.44014L41.9868 8.58681C42.0594 8.18322 41.826 7.78719 41.4374 7.65441L41.168 8.44014C41.4374 7.65441 41.437 7.65428 41.4366 7.65414L41.4357 7.65385L41.4337 7.65317L41.4287 7.65148L41.4145 7.6468C41.4031 7.64313 41.3882 7.63838 41.3698 7.63274C41.3331 7.62146 41.2824 7.6066 41.2192 7.58966C41.0931 7.55585 40.916 7.51346 40.6993 7.47496C40.2687 7.39843 39.6668 7.33457 38.9905 7.39164ZM38.375 10.2228C37.9893 10.2731 37.4956 10.2515 36.8712 10.0894C37.5666 9.36135 38.3942 9.10886 39.1307 9.0467C39.4649 9.0185 39.7793 9.03057 40.0499 9.05944C39.939 9.25819 39.7941 9.46293 39.6078 9.64378C39.3263 9.91698 38.9374 10.1496 38.375 10.2228Z" fill="white"/>
<path d="M30.4413 24.6316C31.3961 25.3007 32.3382 25.4585 34.1655 25.4269C37.8897 25.3638 40.6844 23.7859 40.9626 20.1504C41.1965 17.0892 39.3439 13.0561 35.8537 14.1354C34.8701 14.4354 33.8235 14.4638 32.8251 14.2174C29.3412 13.359 27.9501 16.2561 27.6719 19.1279C27.5834 20.0575 27.7358 20.9943 28.1145 21.8482" fill="none" stroke="white" stroke-width="2" stroke-linecap="round" stroke-linejoin="round"/>
</svg>
