<svg width="44" height="37" viewBox="0 0 44 37" fill="none" xmlns="http://www.w3.org/2000/svg">
<path d="M23.0483 21.2074C23.0483 21.6676 22.6767 22.0406 22.2183 22.0406C21.7599 22.0406 21.3882 21.6676 21.3882 21.2074C21.3882 20.7473 21.7599 20.3743 22.2183 20.3743C22.6767 20.3743 23.0483 20.7473 23.0483 21.2074Z" fill="white"/>
<path fill-rule="evenodd" clip-rule="evenodd" d="M22.8679 0.849985C22.8771 0.389926 22.5131 0.00945176 22.0547 0.000172865C21.5964 -0.00910603 21.2174 0.356324 21.2082 0.816384C21.1761 2.41178 20.5161 3.92955 19.3725 5.03791C18.2289 6.14626 16.6947 6.75506 15.1052 6.7312L15.0928 6.73111C11.7463 6.73111 9.16682 4.4408 9.16682 1.23211C9.16682 0.771959 8.79521 0.398931 8.33681 0.398931C7.87841 0.398931 7.5068 0.771959 7.5068 1.23211C7.5068 2.9607 8.07491 4.46269 9.02331 5.63879C9.04117 5.69403 9.06443 5.76668 9.0924 5.85545C9.16362 6.08154 9.26527 6.41202 9.38571 6.82577C9.62676 7.65384 9.94222 8.81254 10.2396 10.1336C10.8401 12.8014 11.3437 16.0342 11.0694 18.542C10.9353 19.7683 10.5554 21.0496 10.0504 22.4135C9.74374 23.2417 9.40742 24.0596 9.05994 24.9046C8.82554 25.4747 8.58595 26.0573 8.34707 26.6636C7.19196 29.595 6.15709 32.8286 6.6574 36.2865C6.72329 36.7418 7.14445 37.0574 7.5981 36.9912C8.05174 36.9251 8.36608 36.5023 8.30019 36.047C7.87385 33.1003 8.72174 30.2645 9.83607 27.4157C10.0487 27.4637 10.3119 27.5225 10.6168 27.5893C11.471 27.7763 12.6539 28.0262 13.9683 28.2776C16.5755 28.7764 19.773 29.2959 21.9345 29.3189C24.1016 29.342 27.3514 28.8522 30.0047 28.3726C31.3431 28.1307 32.55 27.8875 33.4222 27.7048C33.8584 27.6134 34.2114 27.5371 34.4556 27.4836L34.5728 27.4578C34.864 28.2098 35.1376 28.9678 35.3747 29.7409C35.9964 31.7682 36.3316 33.8009 36.028 35.8814C35.9615 36.3366 36.2754 36.7598 36.7289 36.8265C37.1825 36.8932 37.604 36.5782 37.6705 36.1229C38.0229 33.7075 37.6232 31.409 36.9612 29.2506C36.4895 27.7126 35.8659 26.1947 35.2743 24.7544C35.1779 24.5198 35.0823 24.2872 34.9884 24.0569H43.17C43.6284 24.0569 44 23.6839 44 23.2237V15.6251C44 15.165 43.6284 14.7919 43.17 14.7919H33.3056C33.6658 11.5829 34.3502 8.41822 35.3486 5.34685L35.3511 5.33909L35.3536 5.33091C36.1199 4.22199 36.5691 2.8641 36.5691 1.32705C36.5691 0.866901 36.1975 0.493873 35.7391 0.493873C35.2807 0.493873 34.9091 0.866901 34.9091 1.32705C34.9091 4.53574 32.3296 6.82605 28.9831 6.82605L28.9707 6.82614C27.3812 6.85 25.847 6.24121 24.7034 5.13285C23.5598 4.02449 22.8998 2.50672 22.8678 0.911327C22.8676 0.903673 22.8673 0.896045 22.867 0.888445L22.8679 0.849985ZM30.497 24.0569H33.1969C33.3849 24.5278 33.5771 24.9957 33.7689 25.4626L33.7708 25.4671C33.8287 25.6081 33.8866 25.749 33.9443 25.8899C33.7188 25.9389 33.4274 26.0015 33.0831 26.0736C32.2216 26.254 31.0302 26.4941 29.7105 26.7326C27.0477 27.2139 23.9421 27.6739 21.9521 27.6527C19.9566 27.6314 16.8933 27.1409 14.279 26.6407C12.9826 26.3927 11.8146 26.146 10.9705 25.9612C10.7867 25.9209 10.6184 25.8836 10.4675 25.8499L10.5736 25.5915C10.9331 24.7163 11.294 23.8379 11.6064 22.9941C12.1296 21.5812 12.5635 20.1507 12.7195 18.7238C13.0256 15.9253 12.4662 12.4649 11.8588 9.76628C11.6705 8.92973 11.4753 8.15703 11.2952 7.48776C12.4184 8.07473 13.7173 8.39651 15.0867 8.39747C17.1126 8.42621 19.0678 7.64953 20.5255 6.23671C21.1331 5.64791 21.6336 4.96856 22.014 4.22922C22.3998 5.00538 22.9169 5.71773 23.5504 6.33165C25.0081 7.74448 26.9633 8.52117 28.9893 8.49241C30.4461 8.49138 31.8231 8.12728 32.9936 7.46708C32.3577 9.86986 31.9035 12.3184 31.6354 14.7919H25.5073C25.0489 14.7919 24.6773 15.165 24.6773 15.6251V23.2237C24.6773 23.6839 25.0489 24.0569 25.5073 24.0569H27.1222C27.5806 24.0569 27.9522 23.6839 27.9522 23.2237C27.9522 22.7636 27.5806 22.3906 27.1222 22.3906H26.3373V16.4583H29.8487V18.196C29.8487 18.4261 30.0345 18.6126 30.2637 18.6126C30.4929 18.6126 30.6787 18.4261 30.6787 18.196V16.4583H33.9175V18.1897C33.9175 18.4198 34.1033 18.6063 34.3325 18.6063C34.5617 18.6063 34.7475 18.4198 34.7475 18.1897V16.4583H38.1376V18.2024C38.1376 18.4324 38.3235 18.619 38.5527 18.619C38.7819 18.619 38.9677 18.4324 38.9677 18.2024V16.4583H42.34V22.3906H30.497C30.0386 22.3906 29.667 22.7636 29.667 23.2237C29.667 23.6839 30.0386 24.0569 30.497 24.0569Z" fill="white"/>
<path d="M3.88941 16.4727C4.15123 16.095 4.66851 16.0019 5.04479 16.2647L8.21776 18.4809C8.22795 18.488 8.23794 18.4954 8.24773 18.5029C8.32461 18.5573 8.39351 18.6259 8.45036 18.7079C8.71218 19.0856 8.6194 19.6049 8.24312 19.8677L5.07015 22.084C4.69387 22.3468 4.17659 22.2537 3.91477 21.876C3.65295 21.4982 3.74573 20.979 4.12201 20.7162L5.15016 19.998H0.830013C0.37161 19.998 0 19.625 0 19.1648C0 18.7047 0.37161 18.3317 0.830013 18.3317H5.09764L4.09665 17.6325C3.72037 17.3697 3.62759 16.8504 3.88941 16.4727Z" fill="white"/>
</svg>
