<svg width="126" height="102" viewBox="0 0 126 102" fill="none" xmlns="http://www.w3.org/2000/svg">
<path opacity="0.6" d="M50.838 1.63788C64.5253 1.63788 77.6521 7.06613 87.3305 16.7285C97.0089 26.3908 102.446 39.4958 102.446 53.1604C102.446 81.6132 79.9235 40.472 51.4234 40.472C22.9233 40.472 0 81.6132 0 53.1604C0 39.4958 4.66701 26.3908 14.3454 16.7285C24.0239 7.06613 37.1506 1.63788 50.838 1.63788Z" fill="#4986C5"/>
<path opacity="0.6" d="M83.575 51.2532C83.575 57.6411 81.6776 63.8856 78.1228 69.1969C74.5679 74.5082 69.5153 78.6479 63.6039 81.0924C57.6924 83.537 51.1876 84.1766 44.9121 82.9304C38.6365 81.6842 32.872 78.6081 28.3476 74.0912C23.8232 69.5743 20.742 63.8194 19.4937 57.5542C18.2454 51.2891 18.8861 44.7951 21.3347 38.8934C23.7833 32.9918 27.9299 27.9476 33.25 24.3987C38.5702 20.8497 44.825 18.9555 51.2235 18.9555C55.472 18.9555 59.6788 19.7909 63.6039 21.414C67.5289 23.0371 71.0953 25.4162 74.0994 28.4153C77.1035 31.4144 79.4865 34.9749 81.1124 38.8934C82.7382 42.812 83.575 47.0118 83.575 51.2532Z" fill="#4986C5"/>
<path d="M51.5263 92.9749C74.4985 92.9749 93.121 74.3833 93.121 51.4493C93.121 28.5153 74.4985 9.92365 51.5263 9.92365C28.5542 9.92365 9.93164 28.5153 9.93164 51.4493C9.93164 74.3833 28.5542 92.9749 51.5263 92.9749Z" stroke="#424041" stroke-width="2" stroke-miterlimit="10" stroke-linecap="round"/>
<path d="M78.6133 9.09696C89.2236 15.9928 96.8242 26.6444 99.8858 38.9088C102.947 51.1732 101.243 64.14 95.1151 75.2004C88.9873 86.2608 78.891 94.5938 66.8577 98.5229C54.8244 102.452 41.7471 101.685 30.2571 96.3775C18.767 91.0696 9.71692 81.6143 4.92769 69.914C0.138456 58.2138 -0.034468 45.1368 4.44371 33.3144C8.92188 21.492 17.7188 11.8015 29.0645 6.19264C40.4102 0.583801 53.4627 -0.527112 65.5957 3.08343" stroke="#424041" stroke-width="2" stroke-miterlimit="10" stroke-linecap="round"/>
<path d="M51.2236 18.9555C57.6221 18.9555 63.8769 20.8497 69.1971 24.3986C74.5172 27.9476 78.6638 32.9918 81.1124 38.8934C83.561 44.7951 84.2017 51.289 82.9534 57.5542C81.7051 63.8193 78.6239 69.5742 74.0995 74.0912C69.5751 78.6081 63.8106 81.6841 57.535 82.9304C51.2594 84.1766 44.7547 83.537 38.8432 81.0924C32.9317 78.6479 27.8791 74.5082 24.3243 69.1969C20.7695 63.8856 18.8721 57.6411 18.8721 51.2532C18.8721 42.6873 22.2806 34.4723 28.3476 28.4153C34.4147 22.3583 42.6434 18.9555 51.2236 18.9555ZM51.2236 15.8795C44.2157 15.8795 37.3652 17.9541 31.5383 21.8411C25.7115 25.728 21.17 31.2526 18.4882 37.7163C15.8064 44.18 15.1047 51.2925 16.4719 58.1543C17.839 65.0161 21.2137 71.3191 26.169 76.2662C31.1243 81.2133 37.4378 84.5823 44.311 85.9472C51.1843 87.3121 58.3086 86.6116 64.783 83.9343C71.2575 81.2569 76.7913 76.723 80.6846 70.9058C84.578 65.0886 86.6561 58.2495 86.6561 51.2532C86.6561 46.6079 85.7396 42.008 83.959 37.7163C82.1783 33.4246 79.5684 29.525 76.2781 26.2402C72.9879 22.9555 69.0819 20.3499 64.783 18.5722C60.4841 16.7945 55.8766 15.8795 51.2236 15.8795Z" fill="#424041"/>
<path d="M38.5898 64.1569C39.9746 62.0836 41.8489 60.3821 44.0475 59.2023C46.2461 58.0226 48.7016 57.4008 51.1977 57.3916C53.6937 57.3825 56.1537 57.9864 58.361 59.1501C60.5682 60.3137 62.4549 62.0015 63.8548 64.0646" stroke="#424041" stroke-width="2" stroke-miterlimit="10" stroke-linecap="round"/>
<path d="M117.021 39.6876L117.853 66.7408L118.207 78.6909L118.484 88.0265C118.501 88.572 118.407 89.1152 118.209 89.624C118.012 90.1328 117.714 90.5967 117.333 90.9883C116.952 91.3799 116.496 91.6912 115.993 91.9036C115.489 92.1161 114.948 92.2255 114.402 92.2252V92.2252C113.855 92.2255 113.314 92.1161 112.81 91.9036C112.307 91.6912 111.851 91.3799 111.471 90.9883C111.09 90.5967 110.792 90.1328 110.594 89.624C110.396 89.1152 110.303 88.572 110.319 88.0265L110.612 78.3987L110.966 66.8484L111.783 39.8106" stroke="#424041" stroke-width="2" stroke-linecap="round" stroke-linejoin="round"/>
<path d="M117.02 39.6876C121.642 38.0112 125 32.3053 125 25.492C125 17.3714 120.194 10.7888 114.216 10.7888C108.239 10.7888 103.433 17.3714 103.433 25.492C103.433 32.4437 106.96 38.2573 111.705 39.7799" stroke="#424041" stroke-width="2" stroke-linecap="round" stroke-linejoin="round"/>
<path d="M107.746 26.1994C107.746 30.8134 110.103 34.7352 113.277 35.7503" stroke="#424041" stroke-width="2" stroke-linecap="round" stroke-linejoin="round"/>
<path d="M64.2712 43.9477C65.8708 43.9477 67.1674 42.6532 67.1674 41.0563C67.1674 39.4594 65.8708 38.1649 64.2712 38.1649C62.6717 38.1649 61.375 39.4594 61.375 41.0563C61.375 42.6532 62.6717 43.9477 64.2712 43.9477Z" fill="#222221"/>
<path d="M38.1745 43.9477C39.7741 43.9477 41.0708 42.6532 41.0708 41.0563C41.0708 39.4594 39.7741 38.1649 38.1745 38.1649C36.575 38.1649 35.2783 39.4594 35.2783 41.0563C35.2783 42.6532 36.575 43.9477 38.1745 43.9477Z" fill="#222221"/>
</svg>
