<svg width="30" height="32" viewBox="0 0 30 32" fill="none" xmlns="http://www.w3.org/2000/svg">
<path d="M14.3905 -1.55242e-07C23.011 -5.415e-07 29.9993 7.16344 29.9993 16C29.9993 24.8366 23.011 32 14.3905 32C5.76996 32 15.9514 24.8366 15.9514 16C15.9514 7.16344 5.76995 2.31016e-07 14.3905 -1.55242e-07Z" fill="#3B5998" fill-opacity="0.6"/>
<path d="M11.8905 23.6196H14.6376C14.8733 23.6196 15.0644 23.4237 15.0644 23.1821V16.8435H16.4916C16.7104 16.8435 16.8937 16.6739 16.9162 16.4508L17.1568 14.057C17.1691 13.9339 17.13 13.811 17.0491 13.7191C16.9681 13.6271 16.853 13.5747 16.7322 13.5747H15.0644V12.6051C15.0644 12.4048 15.1262 12.3898 15.2206 12.3898H16.6975C16.9332 12.3898 17.1243 12.1939 17.1243 11.9523V9.62811C17.1243 9.38715 16.9342 9.19159 16.6992 9.19061L14.6624 9.18213C13.2352 9.18213 12.4735 9.8258 12.0858 10.3657C11.5446 11.1197 11.4637 12.0031 11.4637 12.4626V13.5746H10.584C10.3483 13.5746 10.1572 13.7705 10.1572 14.0121V16.4059C10.1572 16.6475 10.3483 16.8434 10.584 16.8434H11.4637V23.1821C11.4637 23.4237 11.6548 23.6196 11.8905 23.6196ZM11.0108 15.9685V14.4497H11.8905C12.1262 14.4497 12.3173 14.2538 12.3173 14.0122V12.4627C12.3173 12.1791 12.3617 11.4577 12.7733 10.8844C13.1673 10.3355 13.8029 10.0572 14.6606 10.0572L16.2706 10.0639V11.5149H15.2205C14.7179 11.5149 14.2107 11.852 14.2107 12.6051V14.0122C14.2107 14.2538 14.4018 14.4497 14.6375 14.4497H16.2591L16.1064 15.9685H14.6375C14.4018 15.9685 14.2107 16.1644 14.2107 16.406V22.7446H12.3172V16.406C12.3172 16.1644 12.1261 15.9685 11.8904 15.9685H11.0108Z" fill="#424041"/>
<path d="M23.3154 6.50108C20.7358 3.85672 17.3059 2.40039 13.6577 2.40039C10.0098 2.40039 6.58015 3.85672 4.00044 6.50108C1.42073 9.14544 0 12.6611 0 16.4004C0 20.1404 1.42073 23.6562 4.00044 26.3004C6.57999 28.9443 10.0097 30.4004 13.6577 30.4004C17.3061 30.4004 20.7359 28.9443 23.3153 26.3004C25.8949 23.6563 27.3155 20.1404 27.3155 16.4004C27.3155 12.661 25.8949 9.14533 23.3154 6.50108ZM22.7118 25.6816C20.2935 28.1603 17.0781 29.5254 13.6577 29.5254C10.2377 29.5254 7.02232 28.1603 4.60399 25.6816C2.18551 23.2027 0.853609 19.9066 0.853609 16.4004C0.853609 12.8948 2.18551 9.59891 4.60399 7.11981C7.02253 4.64066 10.2379 3.27539 13.6577 3.27539C17.0779 3.27539 20.2934 4.64066 22.7118 7.11976C25.1301 9.5988 26.4619 12.8947 26.4619 16.4004C26.4619 19.9067 25.1301 23.2028 22.7118 25.6816Z" fill="#424041"/>
<path d="M22.943 8.68877C22.7945 8.50108 22.5258 8.47237 22.3427 8.62467C22.1596 8.77692 22.1316 9.05244 22.2801 9.24002C23.876 11.2563 24.7549 13.7996 24.7549 16.4014C24.7549 19.4402 23.6007 22.2969 21.5048 24.4452C19.409 26.5933 16.6223 27.7764 13.658 27.7764C10.9232 27.7764 8.29599 26.7479 6.26024 24.8804C6.08461 24.7193 5.81476 24.7346 5.65759 24.9146C5.50042 25.0946 5.51535 25.3712 5.69098 25.5324C7.88348 27.5437 10.7129 28.6514 13.658 28.6514C16.8503 28.6514 19.8514 27.3773 22.1084 25.0638C24.3655 22.7503 25.6085 19.6739 25.6085 16.4014C25.6085 13.5995 24.6619 10.8605 22.943 8.68877Z" fill="#424041"/>
<path d="M2.56064 16.3999C2.56064 10.1277 7.53873 5.0249 13.6576 5.0249C16.3923 5.0249 19.0195 6.05346 21.0553 7.9211C21.2309 8.08232 21.5008 8.06689 21.6579 7.88692C21.8151 7.70689 21.8002 7.43028 21.6246 7.26917C19.4321 5.25765 16.6027 4.1499 13.6576 4.1499C10.4656 4.1499 7.46468 5.42418 5.20742 7.738C2.95015 10.0518 1.70703 13.128 1.70703 16.3999C1.70703 19.2021 2.65368 21.9413 4.37259 24.1129C4.45693 24.2195 4.58007 24.2748 4.70427 24.2748C4.79875 24.2748 4.89382 24.2428 4.97294 24.177C5.15599 24.0248 5.18399 23.7492 5.03547 23.5616C3.43954 21.5453 2.56064 19.0019 2.56064 16.3999Z" fill="#424041"/>
</svg>
