<svg width="30" height="32" viewBox="0 0 30 32" fill="none" xmlns="http://www.w3.org/2000/svg">
    <path d="M14.3915 -1.55242e-07C23.0121 -5.415e-07 30.0005 7.16344 30.0005 16C30.0005 24.8366 23.0121 32 14.3915 32C5.77089 32 15.9524 24.8366 15.9524 16C15.9524 7.16344 5.77089 2.31016e-07 14.3915 -1.55242e-07Z"
        fill="#E64D5B" fill-opacity="0.8" />
    <path d="M23.3154 6.50062C20.736 3.85629 17.3059 2.3999 13.6579 2.3999C10.0098 2.3999 6.58028 3.85629 4.00051 6.50062C1.4208 9.14503 0 12.6605 0 16.3999C0 20.1399 1.4208 23.6555 4.00051 26.2997C6.58001 28.9438 10.0098 30.3999 13.6579 30.3999C17.3062 30.3999 20.736 28.9438 23.3154 26.2997C25.8949 23.6555 27.3157 20.1399 27.3157 16.3999C27.3157 12.6605 25.8949 9.14475 23.3154 6.50062ZM22.7118 25.6809C20.2936 28.1598 17.0782 29.5248 13.6579 29.5248C10.2377 29.5248 7.02236 28.1598 4.6041 25.6809C2.18558 23.2022 0.853679 19.906 0.853679 16.3999C0.853679 12.8944 2.18558 9.59845 4.6041 7.11934C7.02263 4.64023 10.238 3.27497 13.6579 3.27497C17.078 3.27497 20.2934 4.64023 22.7118 7.11934C25.1301 9.59818 26.462 12.8941 26.462 16.3999C26.462 19.9062 25.1301 23.2022 22.7118 25.6809Z"
        fill="#424041" />
    <path d="M22.9431 8.68789C22.7947 8.50011 22.5258 8.47133 22.3427 8.62377C22.1595 8.77601 22.1317 9.05156 22.2802 9.239C23.876 11.2553 24.7549 13.7985 24.7549 16.4004C24.7549 19.4392 23.6007 22.2959 21.5049 24.4441C19.4092 26.5924 16.6223 27.7752 13.6581 27.7752C10.9233 27.7752 8.29594 26.7469 6.26035 24.8793C6.08449 24.7181 5.81487 24.7335 5.65755 24.9135C5.5005 25.0935 5.5153 25.3702 5.69089 25.5312C7.88354 27.5427 10.7129 28.6503 13.6581 28.6503C16.8503 28.6503 19.8515 27.3763 22.1085 25.0628C24.3655 22.7493 25.6086 19.6728 25.6086 16.4004C25.6086 13.5985 24.662 10.8596 22.9431 8.68789Z"
        fill="#424041" />
    <path d="M2.56038 16.3998C2.56038 10.1276 7.5386 5.02462 13.6575 5.02462C16.3923 5.02462 19.0194 6.05322 21.0552 7.92086C21.2308 8.08212 21.5007 8.0666 21.6578 7.88668C21.8151 7.70669 21.8 7.43004 21.6245 7.26899C19.4321 5.25752 16.6025 4.1499 13.6575 4.1499C10.4656 4.1499 7.46464 5.42411 5.20737 7.73793C2.9501 10.0517 1.70703 13.1278 1.70703 16.3998C1.70703 19.2019 2.65367 21.9411 4.37243 24.1126C4.45686 24.2194 4.57984 24.2747 4.70408 24.2747C4.79864 24.2747 4.89374 24.2426 4.9729 24.1766C5.15576 24.0245 5.1839 23.7489 5.03545 23.5614C3.43933 21.5451 2.56038 19.0017 2.56038 16.3998Z"
        fill="#424041" />
    <path d="M17.245 9.38086H10.0973C8.28496 9.38086 6.81055 10.8923 6.81055 12.75V20.0767C6.81055 21.9345 8.28496 23.4458 10.0973 23.4458H17.245C19.0573 23.4458 20.5316 21.9345 20.5316 20.0767V12.75C20.5316 10.8923 19.0573 9.38086 17.245 9.38086ZM19.6663 20.0766C19.6663 21.4451 18.5801 22.5586 17.245 22.5586H10.0973C8.76225 22.5586 7.67616 21.4451 7.67616 20.0766V12.75C7.67616 11.3815 8.76232 10.2682 10.0973 10.2682H17.245C18.5801 10.2682 19.6663 11.3816 19.6663 12.75V20.0766Z"
        fill="#424041" />
    <path d="M17.5056 11.9521C17.215 11.9521 16.9785 12.1945 16.9785 12.4923C16.9785 12.79 17.215 13.0323 17.5056 13.0323C17.7961 13.0323 18.0325 12.79 18.0325 12.4923C18.0325 12.1945 17.7961 11.9521 17.5056 11.9521Z"
        fill="#424041" />
<path d="M13.6716 12.9668C11.8172 12.9668 10.3086 14.5132 10.3086 16.414C10.3086 18.3149 11.8172 19.8615 13.6716 19.8615C15.526 19.8615 17.0348 18.3149 17.0348 16.414C17.0348 14.5132 15.526 12.9668 13.6716 12.9668ZM13.6716 18.9745C12.2943 18.9745 11.1739 17.8258 11.1739 16.414C11.1739 15.0025 12.2943 13.8542 13.6716 13.8542C15.0487 13.8542 16.169 15.0025 16.169 16.414C16.169 17.8258 15.0487 18.9745 13.6716 18.9745Z" fill="#424041"/>
</svg>
