<svg width="37" height="24" viewBox="0 0 37 24" fill="none" xmlns="http://www.w3.org/2000/svg">
<path d="M22.9318 4.18115H13.3594V19.8157H22.9318V4.18115Z" fill="#FF5F00"/>
<path d="M14.3452 11.9997C14.344 10.4942 14.6853 9.0082 15.3432 7.6541C16.0011 6.30001 16.9584 5.1133 18.1426 4.1838C16.6759 3.03109 14.9144 2.31428 13.0595 2.11531C11.2047 1.91634 9.33125 2.24323 7.65337 3.05862C5.9755 3.87401 4.56088 5.14501 3.57118 6.72634C2.58148 8.30768 2.05664 10.1356 2.05664 12.0011C2.05664 13.8666 2.58148 15.6944 3.57118 17.2758C4.56088 18.8571 5.9755 20.1281 7.65337 20.9435C9.33125 21.7589 11.2047 22.0858 13.0595 21.8868C14.9144 21.6878 16.6759 20.971 18.1426 19.8183C16.958 18.8885 16.0005 17.7014 15.3426 16.3468C14.6846 14.9922 14.3436 13.5056 14.3452 11.9997Z" fill="#EB001B"/>
<path d="M33.2794 18.1616V17.8412H33.4175V17.7749H33.0889V17.8412H33.2187V18.1616H33.2794ZM33.9174 18.1616V17.7749H33.818L33.702 18.0511L33.586 17.7749H33.4866V18.1616H33.5584V17.8688L33.6661 18.1201H33.7407L33.8484 17.8688V18.1616H33.9174Z" fill="#F79E1B"/>
<path d="M34.23 11.9997C34.23 13.8653 33.705 15.6933 32.7152 17.2747C31.7253 18.8561 30.3104 20.1271 28.6324 20.9423C26.9543 21.7576 25.0807 22.0843 23.2257 21.885C21.3707 21.6858 19.6092 20.9686 18.1426 19.8156C19.3264 18.8852 20.2834 17.6982 20.9415 16.344C21.5996 14.9899 21.9415 13.5039 21.9415 11.9983C21.9415 10.4927 21.5996 9.00675 20.9415 7.65257C20.2834 6.2984 19.3264 5.11137 18.1426 4.18104C19.6092 3.02797 21.3707 2.31082 23.2257 2.11156C25.0807 1.91231 26.9543 2.23899 28.6324 3.05426C30.3104 3.86953 31.7253 5.14051 32.7152 6.72189C33.705 8.30328 34.23 10.1313 34.23 11.9969V11.9997Z" fill="#F79E1B"/>
</svg>
