<svg xmlns="http://www.w3.org/2000/svg" viewBox="0 0 164.74 53.2"><defs><style>.cls-1{fill:#1a1f71;}</style></defs><title>visa</title><g id="Слой_2" data-name="Слой 2"><g id="Layer_1" data-name="Layer 1"><path class="cls-1" d="M62.55.94,41,52.4H26.91L16.29,11.33c-.64-2.52-1.2-3.45-3.16-4.52A55.69,55.69,0,0,0,0,2.43L.31.94H23a6.21,6.21,0,0,1,6.14,5.24L34.71,36,48.56.94ZM117.68,35.6C117.74,22,98.91,21.26,99,15.2c0-1.84,1.8-3.81,5.64-4.31a25.13,25.13,0,0,1,13.13,2.3l2.33-10.92A35.89,35.89,0,0,0,107.69,0C94.53,0,85.27,7,85.19,17c-.08,7.41,6.61,11.54,11.65,14,5.19,2.52,6.93,4.14,6.91,6.39,0,3.45-4.14,5-8,5a27.82,27.82,0,0,1-13.67-3.25L79.7,50.47c3.12,1.43,8.86,2.67,14.8,2.73,14,0,23.14-6.91,23.18-17.61m34.75,16.8h12.31L154,.94H142.63A6.06,6.06,0,0,0,137,4.71L117,52.4h14l2.78-7.68h17.08ZM137.57,34.17l7-19.32,4,19.32ZM81.57.94l-11,51.46H57.25L68.26.94Z"/></g></g></svg>