<svg width="30" height="32" viewBox="0 0 30 32" fill="none" xmlns="http://www.w3.org/2000/svg">
<path d="M14.3915 -1.55242e-07C23.012 -5.415e-07 30.0004 7.16344 30.0004 16C30.0004 24.8366 23.012 32 14.3915 32C5.77091 32 15.9524 24.8366 15.9524 16C15.9524 7.16344 5.77091 2.31016e-07 14.3915 -1.55242e-07Z" fill="#4E729A" fill-opacity="0.8"/>
<path d="M23.3153 6.50111C20.7359 3.85678 17.3058 2.40039 13.6578 2.40039C10.0098 2.40039 6.58026 3.85678 4.00049 6.50111C1.42079 9.14551 0 12.6609 0 16.4004C0 20.1404 1.42079 23.656 4.00049 26.3001C6.57999 28.9443 10.0098 30.4004 13.6578 30.4004C17.3061 30.4004 20.7359 28.9443 23.3153 26.3001C25.8948 23.656 27.3156 20.1404 27.3156 16.4004C27.3156 12.6609 25.8948 9.14524 23.3153 6.50111ZM22.7117 25.6814C20.2935 28.1603 17.0782 29.5253 13.6578 29.5253C10.2377 29.5253 7.02233 28.1603 4.60408 25.6814C2.18557 23.2027 0.853675 19.9065 0.853675 16.4004C0.853675 12.8949 2.18557 9.59894 4.60408 7.11983C7.0226 4.64072 10.238 3.27545 13.6578 3.27545C17.0779 3.27545 20.2933 4.64072 22.7117 7.11983C25.13 9.59867 26.4619 12.8946 26.4619 16.4004C26.4619 19.9067 25.13 23.2027 22.7117 25.6814Z" fill="#424041"/>
<path d="M22.9431 8.68741C22.7946 8.49962 22.5257 8.47084 22.3426 8.62329C22.1595 8.77552 22.1316 9.05108 22.2801 9.23852C23.876 11.2548 24.7548 13.798 24.7548 16.3999C24.7548 19.4387 23.6006 22.2954 21.5049 24.4436C19.4091 26.5919 16.6223 27.7748 13.6581 27.7748C10.9233 27.7748 8.29593 26.7464 6.26034 24.8789C6.08449 24.7176 5.81487 24.733 5.65755 24.913C5.5005 25.093 5.5153 25.3697 5.69089 25.5307C7.88353 27.5422 10.7128 28.6498 13.6581 28.6498C16.8502 28.6498 19.8515 27.3758 22.1085 25.0623C24.3654 22.7488 25.6085 19.6724 25.6085 16.3999C25.6085 13.598 24.6619 10.8591 22.9431 8.68741Z" fill="#424041"/>
<path d="M2.56135 16.4008C2.56135 10.1285 7.53955 5.0256 13.6585 5.0256C16.3932 5.0256 19.0203 6.0542 21.0561 7.92184C21.2317 8.0831 21.5016 8.06758 21.6587 7.88766C21.816 7.70767 21.8009 7.43102 21.6254 7.26997C19.433 5.2585 16.6034 4.15088 13.6585 4.15088C10.4666 4.15088 7.4656 5.42509 5.20834 7.73891C2.95108 10.0527 1.70801 13.1288 1.70801 16.4008C1.70801 19.2029 2.65465 21.9421 4.3734 24.1136C4.45783 24.2203 4.5808 24.2756 4.70504 24.2756C4.7996 24.2756 4.8947 24.2436 4.97386 24.1776C5.15672 24.0255 5.18486 23.7499 5.03641 23.5624C3.4403 21.5461 2.56135 19.0026 2.56135 16.4008Z" fill="#424041"/>
<path d="M20.9643 19.9595L20.7567 19.6118C20.351 18.9325 19.86 18.3096 19.2973 17.7603L18.6032 17.0828C18.5372 17.0184 18.5273 16.9162 18.5796 16.8397L19.5274 15.4553C19.6641 15.2557 19.7902 15.0454 19.9023 14.8304L20.7122 13.2771C20.8533 13.0064 20.8458 12.6875 20.692 12.4241C20.5382 12.1608 20.2676 12.0033 19.9681 12.003L18.2151 12.0009C18.2147 12.0009 18.2144 12.0009 18.214 12.0009C17.8468 12.0009 17.5142 12.2236 17.3666 12.5683L17.1809 13.002C16.7072 14.1084 16.0606 15.1173 15.2584 16.0018V12.8358C15.2584 12.3752 14.8928 12.0005 14.4435 12.0005H11.9607C11.553 12.0005 11.2214 12.3405 11.2214 12.7584C11.2214 12.9179 11.2694 13.0708 11.3601 13.2003L11.5339 13.4484C11.7042 13.6915 11.7942 13.9783 11.7942 14.2777V16.5911C11.4881 16.2266 11.1153 15.7316 10.7997 15.1625C10.3164 14.291 9.97004 13.2747 9.80658 12.7464C9.66849 12.3003 9.26899 12.0005 8.81242 12.0005H7.03693C6.78636 12.0005 6.55592 12.1179 6.40453 12.3227C6.25327 12.5275 6.20544 12.7868 6.2734 13.0341L6.60461 14.239C6.80759 14.9777 7.08664 15.6967 7.43397 16.3762C7.5388 16.5813 7.78601 16.6606 7.98625 16.5531C8.18645 16.4456 8.26366 16.1921 8.15879 15.9869C7.83781 15.3589 7.57992 14.6943 7.39228 14.0116L7.07007 12.8393H8.81246C8.91078 12.8393 8.99682 12.9039 9.02657 13.0001C9.19977 13.5597 9.56801 14.6387 10.0883 15.5769C10.5152 16.3468 11.0332 16.9882 11.3926 17.3906C11.5895 17.6111 11.8924 17.6837 12.1643 17.5753C12.4366 17.4669 12.6125 17.2034 12.6125 16.9041V14.2777C12.6125 13.8017 12.4694 13.3457 12.1986 12.9592L12.1146 12.8393H14.4401V16.2027C14.4401 16.4488 14.5606 16.6751 14.7625 16.8081C14.9644 16.9412 15.2153 16.9596 15.4337 16.8574L15.6024 16.7785C15.6801 16.7421 15.7491 16.6914 15.8077 16.6277C16.6956 15.6612 17.4098 14.5547 17.9303 13.339L18.116 12.9054C18.133 12.8654 18.1715 12.8397 18.214 12.8397H18.2142L19.9672 12.8417C19.9732 12.8417 19.9822 12.8418 19.9899 12.8549C19.9976 12.8682 19.9933 12.8763 19.9906 12.8817L19.1807 14.435C19.0841 14.6203 18.9754 14.8014 18.8576 14.9735L17.9098 16.3578C17.6229 16.7769 17.6772 17.3373 18.0389 17.6903L18.733 18.3678C19.2442 18.8668 19.6903 19.4327 20.0589 20.0498L20.2665 20.3974C20.2715 20.4058 20.2867 20.4312 20.2678 20.4658C20.2489 20.5005 20.2197 20.5005 20.2102 20.5005H18.6968C18.5023 20.5005 18.313 20.4185 18.1775 20.2756L16.6642 18.6806C16.3075 18.3047 15.855 18.0466 15.3554 17.9342C15.1314 17.8837 14.9002 17.9393 14.7214 18.0867C14.5426 18.2341 14.4401 18.4535 14.4401 18.6887V20.2559C14.4401 20.3907 14.3331 20.5005 14.2015 20.5005C13.0287 20.5005 11.8699 20.0983 10.9384 19.368C10.5631 19.0738 10.2051 18.7493 9.8745 18.4036C9.71632 18.2383 9.45729 18.2355 9.29588 18.3977C9.13451 18.5599 9.13197 18.8255 9.29015 18.9908C9.64787 19.3649 10.0351 19.7159 10.4412 20.0342C11.5146 20.8758 12.85 21.3393 14.2014 21.3393C14.7842 21.3393 15.2584 20.8533 15.2584 20.2559V18.7731C15.57 18.8583 15.8517 19.0275 16.0775 19.2655L17.5908 20.8605C17.8795 21.1648 18.2826 21.3393 18.6968 21.3393H20.2102C20.5299 21.3393 20.8255 21.1617 20.9817 20.8759C21.1379 20.59 21.1312 20.2389 20.9643 19.9595Z" fill="#424041"/>
</svg>
