<?xml version="1.0" encoding="utf-8"?><svg xmlns="http://www.w3.org/2000/svg" xmlns:xlink="http://www.w3.org/1999/xlink"><symbol fill="none" viewBox="0 0 56 62" id="a-clock" xmlns="http://www.w3.org/2000/svg"><path d="M37.944 31c0 12.437 9.737 31-7.227 31C13.752 62 0 48.12 0 31 0 13.88 13.752 0 30.717 0c16.964 0 7.227 18.563 7.227 31z" fill="#FB0" fill-opacity=".6"/><path d="M50.682 20.336a23.149 23.149 0 013.416 12.137c0 12.947-10.613 23.449-23.706 23.449S6.687 45.42 6.687 32.472a23.14 23.14 0 012.717-10.91M19.555 11.214a23.868 23.868 0 0123.371.732" stroke="#222221" stroke-width="2" stroke-miterlimit="10" stroke-linecap="round"/><path d="M46.987 20.52a20.508 20.508 0 011.635 20.95 20.414 20.414 0 01-7.255 8.11 20.301 20.301 0 01-20.924.618 20.4 20.4 0 01-7.718-7.668 20.503 20.503 0 01.405-21.01M19.822 14.894a20.314 20.314 0 0122.946 1.22" stroke="#222221" stroke-width="2" stroke-miterlimit="10"/><path d="M30.052 35.267l-2.984 3.18a1.769 1.769 0 01-1.955.427 1.767 1.767 0 01-.586-.391v0a1.776 1.776 0 01-.37-1.974c.096-.217.234-.413.406-.577l3.04-2.873M31.328 29.55l8.74-8.262 1.593 1.605-8.309 8.86M51.114 15.034l-7.975 9.323-4.583-4.606 9.281-8.006M41.023 22.002l8.571-8.64M29.506 29.495l-8.553-8.085M30.866 35.304l2.87 3.05a1.769 1.769 0 001.954.429c.22-.09.419-.223.586-.392v0a1.776 1.776 0 00.37-1.973 1.777 1.777 0 00-.407-.577l-2.947-2.789M19.378 23.052l8.048 8.585M20.952 21.41c.894-1.928.183-4.729-1.908-6.828-2.492-2.501-5.988-3.05-7.811-1.22-1.824 1.83-1.277 5.34 1.216 7.84 2.133 2.142 5.002 2.844 6.923 1.831" stroke="#222221" stroke-width="2" stroke-linecap="round" stroke-linejoin="round"/><path d="M30.392 35.188a2.82 2.82 0 002.815-2.825 2.82 2.82 0 00-2.815-2.825 2.82 2.82 0 00-2.814 2.825 2.82 2.82 0 002.814 2.825z" stroke="#222221" stroke-width="2" stroke-miterlimit="10"/><path d="M47.655 32.363h-2.431M15.543 32.363H13.11M30.393 17.621v-2.44M30.393 49.856v-2.44" stroke="#222221" stroke-width="2" stroke-miterlimit="10" stroke-linecap="round"/></symbol><symbol fill="none" viewBox="0 0 56 63" id="a-healthy" xmlns="http://www.w3.org/2000/svg"><path d="M38.855 31.296c0 12.555 9.83 31.295-7.296 31.295C14.431 62.59.548 48.58.548 31.295.549 14.012 14.432 0 31.559 0c17.126 0 7.296 18.74 7.296 31.296z" fill="#719E00" fill-opacity=".6"/><path d="M19.56 50.443c-1.159.925-2.305 1.144-4.537 1.096-4.544-.089-7.96-2.26-8.317-7.28-.261-4.227 1.996-9.755 6.248-8.296a6.168 6.168 0 003.688.117c4.246-1.185 5.945 2.815 6.285 6.774a8.409 8.409 0 01-.54 3.754M14.834 36.306s.049-4.158-.497-5.02" stroke="#222221" stroke-width="2" stroke-linecap="round" stroke-linejoin="round"/><path d="M12.772 27.607c.928.63 1.705 3.747 1.705 3.747s-2.803.685-3.731.04c-.928-.643-1.686-3.739-1.686-3.739s2.802-.685 3.712-.048zM31.492 27.607V15.881c0-.943-.332-1.847-.922-2.514-.59-.667-1.392-1.041-2.227-1.041h-1.176V8.99h.534c.321 0 .63-.144.857-.401.228-.257.356-.605.356-.969V5.052c0-.364-.128-.712-.356-.969a1.148 1.148 0 00-.857-.401h-6.067c-.321 0-.63.144-.858.401a1.465 1.465 0 00-.355.969V7.62c0 .364.128.712.355.969.228.257.537.401.858.401h.534v3.343H20.84c-.835 0-1.636.374-2.227 1.04-.59.668-.922 1.572-.922 2.515v19.918M21.744 9.004h5.52M19.396 49.423a2.276 2.276 0 01.256-1.454 1.856 1.856 0 011.055-.882l19.46-4.925a1.62 1.62 0 01.742.065c.24.08.464.214.657.395.192.182.35.406.461.66.112.253.177.53.19.812l.48 4.945c.04.279.028.563-.033.837-.062.273-.172.53-.326.752a1.9 1.9 0 01-.564.544c-.22.135-.46.218-.71.244H21.12a1.735 1.735 0 01-1.206-.617c-.32-.37-.503-.86-.517-1.376v0zM42.75 48.121l11.508 2.226.254-1.685-9.287-1.801 9.324-1.157-.164-1.7-8.875 1.104 8.378-3.884-.57-1.582-10.804 5M20.36 36.56v-1.61H47.35v1.924a16.306 16.306 0 01-1.135 6.014" stroke="#222221" stroke-width="2" stroke-linecap="round" stroke-linejoin="round"/><path d="M46.475 34.827c.154-.242.26-.518.315-.809a2.424 2.424 0 000-.883 2.928 2.928 0 00-.704-1.52c-.37-.41-.845-.679-1.358-.768a2.238 2.238 0 00-1.287.151c-.41.177-.771.472-1.048.856a3.062 3.062 0 00.175-1.52 2.928 2.928 0 00-.704-1.52c-.37-.41-.845-.68-1.358-.768a2.238 2.238 0 00-1.011.05c-.33.095-.64.264-.912.497a2.896 2.896 0 00-.882-1.674 2.31 2.31 0 00-1.634-.624 2.343 2.343 0 00-1.601.727 2.941 2.941 0 00-.796 1.729 2.577 2.577 0 00-1.092-.992 2.23 2.23 0 00-1.392-.171c-.47.094-.905.338-1.255.704-.35.365-.6.836-.72 1.356a2.705 2.705 0 00-1.082-1.314 2.245 2.245 0 00-1.566-.307 2.407 2.407 0 00-1.41.828 2.973 2.973 0 00-.68 1.622 2.222 2.222 0 00-1.725-.102c-.371.132-.71.361-.987.67a2.855 2.855 0 00-.61 1.102 3.123 3.123 0 00-.099 1.296c.073.53.284 1.024.607 1.418M17.861 16.052h5.988M41.216 37.854h5.987" stroke="#222221" stroke-width="2" stroke-linecap="round" stroke-linejoin="round"/></symbol><symbol fill="none" viewBox="0 0 56 62" id="a-price" xmlns="http://www.w3.org/2000/svg"><path d="M17.703 31c0 12.427-9.737 31 7.228 31 16.964 0 30.716-13.88 30.716-31 0-17.12-13.752-31-30.716-31-16.965 0-7.228 18.573-7.228 31z" fill="#4986C5" fill-opacity=".6"/><path d="M39.806 54.706H7.056a4.697 4.697 0 01-3.309-1.37 4.915 4.915 0 01-1.444-3.34L1.55 25.097s5.246 3.142 9.108 3.191c2.49.03 7.278-1.72 11.633-1.824 4.92-.115 11.337 1.265 14.159 1.064 3.167-.225 8.864-2.431 8.864-2.431L44.56 49.97a4.916 4.916 0 01-1.436 3.356 4.697 4.697 0 01-3.317 1.379z" stroke="#222221" stroke-width="2" stroke-linecap="round" stroke-linejoin="round"/><path d="M43.93 25.578c2.05-8.71 1.235-15.804-2.234-17.02-4.047-1.422-10.184 6.03-13.701 16.57-.214.65-.268.924-.452 1.569" stroke="#222221" stroke-width="2" stroke-linecap="round" stroke-linejoin="round"/><path d="M29.373 21.505V18.12c0-.837-.325-1.64-.903-2.231a3.049 3.049 0 00-2.18-.924h-1.147v-2.96h.523c.315 0 .617-.128.84-.356a1.23 1.23 0 00.348-.86V8.51a1.23 1.23 0 00-.348-.859 1.175 1.175 0 00-.84-.356h-5.942c-.315 0-.617.128-.84.356a1.23 1.23 0 00-.348.86v2.28c0 .322.125.63.348.859.223.228.525.356.84.356h.523v2.966H18.94c-.405 0-.806.082-1.18.24a3.083 3.083 0 00-1 .684 3.16 3.16 0 00-.669 1.024 3.217 3.217 0 00-.235 1.207v4.723M19.824 12.017h5.407M2.19 25.34a3.71 3.71 0 011.014-1.934 3.573 3.573 0 011.91-1.001 6.266 6.266 0 002.97-1.617c2.894-2.808 5.835-.717 7.683 1.963a6.507 6.507 0 011.081 4.322M6.623 21.706S4.347 18.843 4.3 17.907" stroke="#222221" stroke-width="2" stroke-linecap="round" stroke-linejoin="round"/><path d="M7.312 15.883c-.445.985-3.053 2.054-3.053 2.054s-.874-2.741-.428-3.708c.445-.966 3.066-2.072 3.066-2.072s.861 2.747.415 3.726zM16.004 18.618h5.87M35.623 18.697l5.181-2.826M34.286 23.444l5.181-2.82M6.105 48.196h5.865M6.178 50.846h10.867" stroke="#222221" stroke-width="2" stroke-linecap="round" stroke-linejoin="round"/></symbol><symbol fill="none" viewBox="0 0 56 62" id="a-target" xmlns="http://www.w3.org/2000/svg"><path d="M17.845 30.804c0 12.358-9.676 30.803 7.181 30.803S55.55 47.817 55.55 30.804 41.883 0 25.026 0s-7.181 18.446-7.181 30.804z" fill="#E61203" fill-opacity=".6"/><path d="M43.544 16.627a23.265 23.265 0 01-6.311 33.555 23.296 23.296 0 01-32.996-8.844 23.262 23.262 0 011.548-24.24M10.884 11.86a23.294 23.294 0 0127.823-.066" stroke="#222221" stroke-width="2" stroke-miterlimit="10" stroke-linecap="round"/><path d="M24.837 49.883c10.717 0 19.405-8.683 19.405-19.394 0-10.71-8.688-19.393-19.405-19.393S5.433 19.778 5.433 30.489s8.687 19.394 19.404 19.394z" stroke="#222221" stroke-width="2" stroke-miterlimit="10"/><path d="M24.837 46.004c8.574 0 15.524-6.946 15.524-15.515 0-8.568-6.95-15.515-15.524-15.515-8.573 0-15.524 6.947-15.524 15.515 0 8.57 6.95 15.515 15.524 15.515z" stroke="#222221" stroke-width="2" stroke-miterlimit="10"/><path d="M24.838 30.49l19.506-19.496" stroke="#222221" stroke-width="2" stroke-miterlimit="10" stroke-linecap="round"/><path d="M38.116 17.188l-.424-4.219 6.335-6.325.418 4.219-6.329 6.325z" stroke="#222221" stroke-width="2" stroke-linecap="round" stroke-linejoin="round"/><path d="M48.66 11.274l-4.22-.417-6.33 6.325 4.222.418 6.328-6.326z" stroke="#222221" stroke-width="2" stroke-linecap="round" stroke-linejoin="round"/><path d="M24.838 26.646v7.686M24.838 44.763v2.387M24.838 13.793v2.387M28.682 30.49h-7.69M10.496 30.49H8.107M41.478 30.49H39.09" stroke="#222221" stroke-width="2" stroke-miterlimit="10" stroke-linecap="round"/></symbol><symbol fill="none" viewBox="0 0 15 8" id="arrow-down" xmlns="http://www.w3.org/2000/svg"><path d="M1 1l6.5 6L14 1" stroke="currentColor" stroke-width="2" stroke-linecap="round" stroke-linejoin="round"/></symbol><symbol fill="none" viewBox="0 0 18 31" id="arrow-right" xmlns="http://www.w3.org/2000/svg"><path d="M2 29l14-13.935L2 2" stroke="#424041" stroke-width="4" stroke-linecap="round" stroke-linejoin="round"/></symbol><symbol fill="none" viewBox="0 0 44 51" id="cart" xmlns="http://www.w3.org/2000/svg"><path d="M38.764 13.765H4.352a2.647 2.647 0 00-2.647 2.647v30a2.647 2.647 0 002.647 2.647h34.412a2.647 2.647 0 002.647-2.647v-30a2.647 2.647 0 00-2.647-2.647z" fill="currentColor"/><path d="M29.272 42.631a1.324 1.324 0 100 2.647v-2.647zm8.136 2.647a1.323 1.323 0 100-2.647v2.647zM7.03 42.631a1.324 1.324 0 100 2.647v-2.647zm16.835 2.647a1.323 1.323 0 100-2.647v2.647zm16.698 3.771l.135-1.316a1.332 1.332 0 00-.135-.007v1.323zm-37.114 0v-1.323c-.048 0-.096.002-.144.007l.144 1.316zm-1.743-1.324l-1.323-.033c-.002.068.002.136.01.203l1.313-.17zm.805-32.31l1.323.034v-.033H2.511zm38.98 0l1.323-.032v-.008l-1.324.04zm.804 32.31l1.312.171c.009-.067.012-.136.01-.204l-1.322.033zM8.003 13.771a1.323 1.323 0 102.647 0H8.003zM21.83 1.411V.089v1.324zm11.178 12.534a1.324 1.324 0 002.647 0h-2.647zm-3.735 31.333h8.136v-2.647h-8.136v2.647zm-22.242 0h16.835v-2.647H7.03v2.647zm33.533 2.448H3.449v2.647h37.114v-2.647zm-37.258.007a.293.293 0 01-.208-.054l-1.602 2.107c.6.456 1.353.66 2.097.579l-.287-2.632zm-.208-.054a.19.19 0 01-.078-.124l-2.625.34c.098.757.5 1.434 1.101 1.891l1.602-2.107zm-.068.079l.805-32.31-2.647-.065-.804 32.309 2.646.066zm.805-32.342c0 .228-.134.285-.052.228a.844.844 0 01.46-.12v-2.646c-.713 0-1.416.205-1.975.595-.549.383-1.08 1.047-1.08 1.943h2.647zm.408.109h35.516v-2.647H4.242v2.647zm35.516 0c.222 0 .379.067.449.116.077.054-.033.011-.04-.184l2.646-.082c-.026-.862-.534-1.512-1.083-1.9-.556-.39-1.255-.597-1.972-.597v2.647zm.41-.076l.803 32.309 2.647-.066-.804-32.309-2.647.066zm.814 32.105a.19.19 0 01-.077.123l1.608 2.103a2.836 2.836 0 001.094-1.884l-2.625-.342zm-.077.123a.294.294 0 01-.207.056l-.27 2.633c.74.076 1.489-.13 2.085-.586l-1.608-2.103zM10.65 13.772v-.082H8.004v.082h2.647zm0-.082c0-2.898 1.172-5.682 3.266-7.738l-1.855-1.888a13.491 13.491 0 00-4.058 9.626h2.647zm3.266-7.738a11.295 11.295 0 017.913-3.217V.088c-3.66 0-7.173 1.428-9.768 3.976l1.855 1.888zm7.913-3.217c2.972 0 5.818 1.16 7.912 3.217l1.855-1.888A13.941 13.941 0 0021.829.088v2.647zm7.912 3.217a10.844 10.844 0 013.266 7.738h2.647a13.49 13.49 0 00-4.058-9.626L29.74 5.952zm3.266 7.738v.255h2.647v-.255h-2.647z" fill="#424041"/></symbol><symbol viewBox="0 0 14 14" fill="none" id="close" xmlns="http://www.w3.org/2000/svg"><path d="M1 1l12 12M13 1L1 13" stroke="currentColor" stroke-width="2" stroke-linecap="round" stroke-linejoin="bevel"/></symbol><symbol fill="none" viewBox="0 0 34 37" id="d-energy" xmlns="http://www.w3.org/2000/svg"><path d="M.309.188a.79.79 0 011.15.138c.09.119.183.233.28.344a.82.82 0 01.163.118c1.447 1.347 3.3 2.106 5.229 2.14.452.007.812.4.805.879-.007.478-.38.859-.832.85a9.286 9.286 0 01-3.243-.646c.076.566.145 1.239.207 1.986.17 2.045.3 4.736.42 7.496l.1 2.393c.082 1.97.162 3.898.25 5.588.104 1.969.216 3.548.345 4.486a121.754 121.754 0 004.081.897c2.58.52 5.602 1.03 7.57 1.052 1.964.022 5.028-.456 7.655-.956a119.271 119.271 0 004.332-.91l.026-.007c.44-2.26.695-4.557.759-6.864.013-.478.39-.854.842-.84.452.014.808.413.795.89a43.803 43.803 0 01-.855 7.485 38.92 38.92 0 011.424 3.117c.759 1.884 1.571 4.37 1.484 6.35-.021.478-.404.847-.856.825-.452-.022-.801-.427-.78-.905.068-1.55-.598-3.712-1.355-5.592a37.061 37.061 0 00-1.242-2.744 120.918 120.918 0 01-4.284.899c-2.618.498-5.824 1.007-7.962.983-2.132-.024-5.287-.564-7.86-1.082a123.52 123.52 0 01-4.062-.892 37.118 37.118 0 00-1.206 2.672c-.758 1.88-1.423 4.041-1.355 5.592.021.477-.328.882-.78.905-.452.022-.835-.347-.856-.825-.087-1.981.725-4.467 1.484-6.35a38.89 38.89 0 011.43-3.128c-.172-1.043-.298-2.857-.409-4.962-.089-1.7-.17-3.644-.252-5.618l-.1-2.38c-.119-2.763-.248-5.42-.415-7.423-.083-1.005-.174-1.823-.274-2.4a4.892 4.892 0 00-.133-.597A7.526 7.526 0 01.18 1.405.9.9 0 01.308.188z" fill="#fff"/><path d="M17.916 22.512c0 .478-.367.865-.819.865-.452 0-.819-.387-.819-.865s.367-.866.82-.866c.451 0 .818.388.818.866zM33.691.353a.9.9 0 01.13 1.216c-.06.081-.123.16-.187.239a.871.871 0 01-.254.444c-.44.41-.912.774-1.408 1.09-.044.169-.09.428-.134.788-.089.732-.157 1.758-.212 2.993-.071 1.604-.12 3.512-.17 5.516V12.648c-.028 1.08-.056 2.19-.089 3.294-.014.478-.392.853-.844.838-.452-.015-.807-.414-.793-.892.032-1.087.06-2.189.088-3.268.051-2.018.1-3.958.172-5.579a49.92 49.92 0 01.187-2.803 9.28 9.28 0 01-3.081.584c-.453.008-.825-.373-.833-.85-.007-.479.353-.873.806-.88a7.775 7.775 0 003.767-1.056.99.99 0 01.145-.108A5.842 5.842 0 0032.54.49a.79.79 0 011.15-.138z" fill="#fff"/><path d="M9.883 22.465c-.004-2.53-.01-6.305.837-9.535.452-1.72 1.127-3.207 2.111-4.255.962-1.025 2.263-1.682 4.094-1.682 1.94 0 3.288.665 4.262 1.687.996 1.044 1.658 2.523 2.086 4.24.748 3.003.72 6.467.7 8.99-.003.382-.006.742-.006 1.076 0 .478.366.865.819.865.452 0 .819-.387.819-.865 0-.312.003-.657.006-1.029.022-2.502.055-6.228-.755-9.478-.468-1.879-1.235-3.685-2.516-5.028-1.302-1.366-3.075-2.189-5.415-2.189-2.254 0-3.978.831-5.256 2.194-1.256 1.338-2.035 3.137-2.527 5.011-.911 3.472-.902 7.474-.897 9.975v.001l.001.536c0 .478.367.866.82.866.451 0 .818-.388.818-.866v-.513z" fill="#fff"/><path d="M12.909 11.157c.451-.027.838.338.863.816.017.314.147.61.364.826.216.217.503.337.8.337.299 0 .586-.12.802-.337.217-.216.347-.512.364-.826.025-.478.411-.843.863-.816.402.024.72.351.767.76.01.064.015.13.011.199-.009.167.015.335.07.492.054.158.138.302.247.423.11.122.24.22.386.286a1.114 1.114 0 00.923 0c.146-.067.277-.164.386-.286.11-.121.194-.265.248-.423.055-.157.078-.325.07-.492-.026-.478.32-.886.771-.913.451-.027.838.338.863.816.022.402-.035.805-.166 1.184a2.993 2.993 0 01-.596 1.018 2.808 2.808 0 01-.928.685 2.675 2.675 0 01-2.219 0 2.807 2.807 0 01-1.008-.778c-.51.476-1.17.74-1.853.74-.717 0-1.406-.29-1.927-.81a3.038 3.038 0 01-.873-1.989c-.025-.477.32-.885.772-.912zM13.065 15.597c.451-.027.838.338.863.816.017.314.147.61.363.826.217.217.504.337.802.337.298 0 .584-.12.801-.337.217-.216.347-.512.363-.826.025-.478.412-.843.864-.816.404.024.723.353.767.764.01.063.014.128.01.194-.008.168.015.335.07.493.054.157.139.302.248.423.109.122.24.22.386.286a1.113 1.113 0 00.923 0c.145-.067.277-.164.386-.286.109-.122.193-.266.248-.423.054-.158.078-.325.069-.493-.026-.477.32-.885.771-.912.452-.027.839.338.864.816.021.402-.035.805-.166 1.184a2.997 2.997 0 01-.596 1.018 2.808 2.808 0 01-.929.685 2.676 2.676 0 01-2.218 0 2.81 2.81 0 01-1.008-.778 2.72 2.72 0 01-1.853.74c-.717 0-1.406-.29-1.927-.811a3.037 3.037 0 01-.873-1.988c-.025-.477.32-.885.772-.912z" fill="#fff"/></symbol><symbol fill="none" viewBox="0 0 44 37" id="d-extra-light" xmlns="http://www.w3.org/2000/svg"><path d="M23.04.702a.825.825 0 00-.8-.702.826.826 0 00-.838.814 6.019 6.019 0 01-1.808 4.2 5.95 5.95 0 01-4.226 1.697h-.01c-3.32 0-5.88-2.277-5.88-5.467a.826.826 0 00-.824-.828.826.826 0 00-.823.828c0 1.157.255 2.212.71 3.134l-.022.038.002.005.005.019a21.226 21.226 0 01.1.368 75.598 75.598 0 011.096 4.774c.572 2.942 1.05 6.44.78 8.942-.21 1.938-.882 3.917-1.615 6.076-.222.654-.45 1.324-.672 2.015-.935 2.906-1.728 6.079-1.246 9.478a.824.824 0 101.63-.233c-.419-2.964.244-5.793 1.142-8.605a132.733 132.733 0 004.21.88c2.066.397 4.494.806 6.509.98a17.47 17.47 0 001.934.104h.003a13.194 13.194 0 001.536-.095c1.987-.157 4.348-.535 6.37-.906a128.824 128.824 0 004.196-.847c.897 2.94 1.54 5.871 1.121 8.677a.824.824 0 101.629.246c.496-3.32-.326-6.686-1.287-9.772-.244-.783-.495-1.542-.738-2.28-.74-2.243-1.411-4.281-1.62-6.132a11.68 11.68 0 01-.04-1.757.827.827 0 00-.78-.871.825.825 0 00-.865.784c-.035.671-.02 1.345.047 2.014v.01c.23 2.041.982 4.319 1.737 6.609l.293.887-.55.118c-.805.172-1.891.395-3.102.621.12-.091.239-.185.356-.28a.832.832 0 00.121-1.165.82.82 0 00-1.158-.122 11.568 11.568 0 01-5.9 2.518c-.61.047-1.176.072-1.673.067a19.948 19.948 0 01-1.46-.076c-1.832-.206-3.14-.712-4.019-1.197a6.58 6.58 0 01-1.219-.85 3.764 3.764 0 01-.316-.32l-.007-.008a.82.82 0 00-1.15-.148.831.831 0 00-.153 1.162l.654-.505c-.654.505-.653.505-.653.506l.002.003.004.005.01.012a2.9 2.9 0 00.133.154c.05.056.114.123.192.199a131.731 131.731 0 01-3.844-.805l.143-.42c.747-2.194 1.502-4.413 1.733-6.552.3-2.774-.227-6.487-.802-9.439a75.177 75.177 0 00-.47-2.233c1.262.857 2.822 1.336 4.486 1.337a7.592 7.592 0 005.388-2.166 7.656 7.656 0 001.473-2.007 7.655 7.655 0 001.545 2.128 7.592 7.592 0 005.388 2.146c1.614-.002 3.13-.453 4.371-1.261a92.234 92.234 0 00-1.282 6.067.824.824 0 101.622.29 90.459 90.459 0 012.047-8.934.86.86 0 00.019-.08c.476-.94.745-2.02.745-3.206a.826.826 0 00-.824-.829.826.826 0 00-.823.829c0 3.19-2.56 5.467-5.88 5.467h-.012a5.95 5.95 0 01-4.227-1.682A6.019 6.019 0 0123.08.942a.83.83 0 00-.04-.24z" fill="#fff"/><path d="M22.82 20.924a.647.647 0 01-.645.648.647.647 0 01-.644-.648c0-.358.288-.649.644-.649.356 0 .645.29.645.649zM3.853 16.396A.82.82 0 015 16.19l3.148 2.204a.82.82 0 01.058.044.831.831 0 01-.026 1.341L5.03 21.981a.82.82 0 01-1.147-.206.831.831 0 01.206-1.153l1.03-.72H.823a.826.826 0 01-.824-.83c0-.457.369-.828.824-.828h4.228l-.993-.695a.831.831 0 01-.206-1.153zM40.14 16.396a.831.831 0 01-.205 1.153l-.992.695h4.233c.455 0 .824.371.824.829a.826.826 0 01-.824.828H38.88l1.03.72a.831.831 0 01.205 1.154.82.82 0 01-1.146.206l-3.149-2.203a.831.831 0 01-.024-1.342.835.835 0 01.055-.043l3.142-2.203a.82.82 0 011.147.206z" fill="#fff"/></symbol><symbol fill="none" viewBox="0 0 42 37" id="d-light" xmlns="http://www.w3.org/2000/svg"><path d="M22.921.847a.831.831 0 00-1.663-.033 6.012 6.012 0 01-1.84 4.208 6.034 6.034 0 01-4.278 1.687h-.012c-3.354 0-5.94-2.283-5.94-5.48a.831.831 0 00-1.664 0c0 1.722.57 3.22 1.52 4.392l.07.215a55.567 55.567 0 011.15 4.264c.602 2.66 1.106 5.882.831 8.382-.134 1.222-.515 2.5-1.021 3.859-.307.825-.645 1.64-.993 2.483-.235.568-.475 1.149-.714 1.753-1.158 2.922-2.195 6.145-1.694 9.592a.832.832 0 001.647-.239c-.428-2.937.422-5.764 1.54-8.603a131.964 131.964 0 004.142.86c2.612.496 5.817 1.014 7.984 1.037 2.172.023 5.43-.465 8.089-.943a129.444 129.444 0 004.461-.887l.164-.036c.992 2.796 1.664 5.67 1.162 8.675a.832.832 0 001.641.273c.666-3.986-.506-7.683-1.777-10.958a.833.833 0 00-1.597.435 127.155 127.155 0 01-4.35.863c-2.668.48-5.781.938-7.776.917-2-.021-5.07-.51-7.69-1.009a130.247 130.247 0 01-3.821-.788l.106-.257c.36-.873.722-1.748 1.036-2.59.524-1.408.959-2.834 1.115-4.256.307-2.79-.254-6.239-.862-8.928a56.743 56.743 0 00-.565-2.271 8.25 8.25 0 003.8.906 7.7 7.7 0 006.943-4.155 7.7 7.7 0 006.992 4.25 8.256 8.256 0 003.76-.886 48.54 48.54 0 00-1.308 6.303.83.83 0 001.648.229 46.893 46.893 0 011.962-8.377c.96-1.175 1.536-2.679 1.536-4.411a.831.831 0 00-1.664 0c0 3.198-2.586 5.48-5.94 5.48l-.012.001a6.034 6.034 0 01-4.278-1.688 6.012 6.012 0 01-1.84-4.233V.847z" fill="#fff"/><path d="M23.102 21.139a.831.831 0 11-1.663-.002.831.831 0 011.663.002zM5.057 16.212a.833.833 0 00-1.159.207.83.83 0 00.208 1.156l1.004.697H.832a.831.831 0 100 1.661h4.33l-1.03.716a.83.83 0 00-.208 1.156c.262.377.78.47 1.158.207l3.18-2.209a.83.83 0 00-.025-1.382l-3.18-2.21z" fill="#fff"/><path fill-rule="evenodd" clip-rule="evenodd" d="M38.99 7.392c-1.35.114-3.002.718-4.11 2.6a2.25 2.25 0 00-.275.361c-.104.165-.2.352-.287.54-.175.378-.34.817-.481 1.223a26.737 26.737 0 00-.476 1.532l-.008.027-.002.007v.002l.803.219-.803-.218a.83.83 0 101.605.435v-.002l.002-.005.007-.022.024-.089a24.606 24.606 0 01.421-1.345 11.774 11.774 0 01.452-1.138c1.042.354 1.945.453 2.728.35a3.761 3.761 0 002.178-1.034c.504-.49.804-1.048.978-1.469a4.64 4.64 0 00.235-.751l.004-.017.001-.006v-.004l-.818-.148.819.147a.83.83 0 00-.55-.933l-.269.786.269-.786h-.003l-.005-.003-.015-.004a3.265 3.265 0 00-.195-.057 6.664 6.664 0 00-2.229-.198zm-.615 2.83c-.386.051-.88.03-1.504-.133.696-.728 1.523-.98 2.26-1.042a4.86 4.86 0 01.919.012c-.111.2-.256.404-.442.585-.282.273-.67.506-1.233.579z" fill="#fff"/><path d="M30.441 24.632c.955.669 1.897.826 3.725.795 3.724-.063 6.518-1.641 6.797-5.277.233-3.06-1.62-7.094-5.11-6.015a5.7 5.7 0 01-3.028.082c-3.484-.858-4.875 2.04-5.153 4.91-.089.93.064 1.867.442 2.721" stroke="#fff" stroke-width="2" stroke-linecap="round" stroke-linejoin="round"/></symbol><symbol fill="none" viewBox="0 0 44 37" id="d-minimum" xmlns="http://www.w3.org/2000/svg"><path d="M23.048 21.207c0 .46-.371.834-.83.834a.832.832 0 01-.83-.834c0-.46.372-.833.83-.833.459 0 .83.373.83.833z" fill="#fff"/><path fill-rule="evenodd" clip-rule="evenodd" d="M22.868.85a.832.832 0 00-.813-.85.831.831 0 00-.847.816 6.048 6.048 0 01-1.835 4.222 6.002 6.002 0 01-4.268 1.693h-.012c-3.347 0-5.926-2.29-5.926-5.499A.832.832 0 008.337.4a.832.832 0 00-.83.833c0 1.729.568 3.23 1.516 4.407l.07.216c.07.227.172.557.293.97.24.829.556 1.988.854 3.309.6 2.667 1.104 5.9.83 8.408-.135 1.226-.515 2.508-1.02 3.871a75.51 75.51 0 01-.99 2.492c-.234.57-.474 1.152-.713 1.759-1.155 2.931-2.19 6.165-1.69 9.622a.83.83 0 101.643-.239c-.426-2.947.422-5.782 1.536-8.631a126.242 126.242 0 004.132.862c2.608.498 5.805 1.018 7.966 1.04 2.168.024 5.417-.466 8.07-.945a127.793 127.793 0 004.452-.89l.117-.025c.291.752.565 1.51.802 2.283.621 2.027.957 4.06.653 6.14a.83.83 0 101.642.242c.353-2.415-.047-4.714-.709-6.872-.471-1.538-1.095-3.056-1.687-4.497l-.286-.697h8.182c.458 0 .83-.373.83-.833v-7.599a.832.832 0 00-.83-.833h-9.864a47.8 47.8 0 012.043-9.445l.002-.008.003-.008c.766-1.109 1.215-2.467 1.215-4.004a.832.832 0 00-.83-.833.832.832 0 00-.83.833c0 3.209-2.58 5.5-5.926 5.5h-.012a6.002 6.002 0 01-4.268-1.694A6.048 6.048 0 0122.867.888V.85zm7.629 23.207h2.7c.188.47.38.939.572 1.406l.002.004.173.423-.86.184c-.862.18-2.054.42-3.374.659-2.662.48-5.768.94-7.758.92-1.995-.022-5.059-.512-7.673-1.012a129.403 129.403 0 01-3.812-.791l.107-.259c.36-.875.72-1.753 1.032-2.597.524-1.413.957-2.843 1.114-4.27.306-2.799-.254-6.26-.861-8.958a56.87 56.87 0 00-.564-2.278 8.193 8.193 0 003.792.91 7.658 7.658 0 005.439-2.161 7.7 7.7 0 001.488-2.008 7.699 7.699 0 001.536 2.103 7.658 7.658 0 005.44 2.16c1.456 0 2.833-.365 4.004-1.025a49.464 49.464 0 00-1.359 7.325h-6.128a.832.832 0 00-.83.833v7.599c0 .46.372.833.83.833h1.615c.459 0 .83-.373.83-.833a.832.832 0 00-.83-.833h-.785v-5.933h3.512v1.738a.416.416 0 10.83 0v-1.738h3.238v1.732a.416.416 0 10.83 0v-1.732h3.39v1.744a.416.416 0 10.83 0v-1.744h3.373v5.933H30.497a.832.832 0 00-.83.833c0 .46.372.833.83.833z" fill="#fff"/><path d="M3.89 16.473a.828.828 0 011.155-.208l3.173 2.216.03.022a.835.835 0 01-.005 1.365L5.07 22.084a.828.828 0 01-1.155-.208.835.835 0 01.207-1.16l1.028-.718H.83a.832.832 0 01-.83-.833c0-.46.372-.833.83-.833h4.268l-1.001-.7a.835.835 0 01-.208-1.16z" fill="#fff"/></symbol><symbol fill="none" viewBox="0 0 126 102" id="empty-cart" xmlns="http://www.w3.org/2000/svg"><path opacity=".6" d="M50.838 1.638a51.652 51.652 0 0136.492 15.09 51.479 51.479 0 0115.116 36.432c0 28.453-22.522-12.688-51.023-12.688C22.923 40.472 0 81.613 0 53.16 0 39.496 4.667 26.39 14.345 16.73A51.652 51.652 0 0150.838 1.638z" fill="#4986C5"/><path opacity=".6" d="M83.575 51.253a32.26 32.26 0 01-5.452 17.944 32.34 32.34 0 01-14.52 11.895 32.401 32.401 0 01-18.69 1.838 32.368 32.368 0 01-16.565-8.839 32.281 32.281 0 01-8.854-16.537 32.248 32.248 0 011.84-18.66A32.31 32.31 0 0133.25 24.398a32.39 32.39 0 0140.85 4.016c3.004 3 5.387 6.56 7.012 10.478a32.252 32.252 0 012.463 12.36z" fill="#4986C5"/><path d="M51.526 92.975c22.973 0 41.595-18.592 41.595-41.526 0-22.934-18.622-41.525-41.595-41.525-22.972 0-41.594 18.591-41.594 41.525 0 22.934 18.622 41.526 41.594 41.526z" stroke="#424041" stroke-width="2" stroke-miterlimit="10" stroke-linecap="round"/><path d="M78.613 9.097a50.003 50.003 0 0121.273 29.812 49.928 49.928 0 01-4.77 36.291 50.064 50.064 0 01-28.258 23.323 50.161 50.161 0 01-36.6-2.145 50.036 50.036 0 01-25.33-26.464 49.923 49.923 0 01-.484-36.6 50.03 50.03 0 0124.62-27.121 50.159 50.159 0 0136.532-3.11" stroke="#424041" stroke-width="2" stroke-miterlimit="10" stroke-linecap="round"/><path d="M51.224 18.956a32.39 32.39 0 0117.973 5.443 32.31 32.31 0 0111.915 14.494 32.248 32.248 0 011.841 18.661A32.282 32.282 0 0174.1 74.091a32.369 32.369 0 01-16.565 8.84 32.401 32.401 0 01-18.692-1.839 32.34 32.34 0 01-14.519-11.895 32.26 32.26 0 014.024-40.782 32.379 32.379 0 0122.876-9.46zm0-3.076a35.474 35.474 0 00-19.686 5.961 35.387 35.387 0 00-13.05 15.875 35.319 35.319 0 00-2.016 20.438 35.355 35.355 0 009.697 18.112 35.45 35.45 0 0018.142 9.681 35.488 35.488 0 0020.472-2.013 35.42 35.42 0 0015.902-13.028 35.332 35.332 0 00-4.407-44.666 35.437 35.437 0 00-11.495-7.668 35.484 35.484 0 00-13.56-2.692z" fill="#424041"/><path d="M38.59 64.157a15.213 15.213 0 015.457-4.955 15.242 15.242 0 0114.314-.052 15.211 15.211 0 015.494 4.915" stroke="#424041" stroke-width="2" stroke-miterlimit="10" stroke-linecap="round"/><path d="M117.021 39.688l.832 27.053.354 11.95.277 9.335a4.057 4.057 0 01-.275 1.598 4.09 4.09 0 01-3.807 2.601v0a4.09 4.09 0 01-2.931-1.237 4.076 4.076 0 01-1.152-2.962l.293-9.627.354-11.55.817-27.038M117.02 39.688c4.622-1.677 7.98-7.383 7.98-14.196 0-8.12-4.806-14.703-10.784-14.703-5.977 0-10.783 6.582-10.783 14.703 0 6.952 3.527 12.765 8.272 14.288M107.746 26.2c0 4.613 2.357 8.535 5.531 9.55" stroke="#424041" stroke-width="2" stroke-linecap="round" stroke-linejoin="round"/><path d="M64.271 43.948c1.6 0 2.896-1.295 2.896-2.892a2.894 2.894 0 00-2.896-2.891 2.894 2.894 0 00-2.896 2.891 2.894 2.894 0 002.896 2.892zM38.175 43.948c1.6 0 2.896-1.295 2.896-2.892a2.894 2.894 0 00-2.896-2.891 2.894 2.894 0 00-2.897 2.891 2.894 2.894 0 002.897 2.892z" fill="#222221"/></symbol><symbol fill="none" viewBox="0 0 30 32" id="fb" xmlns="http://www.w3.org/2000/svg"><path d="M14.39 0C23.011 0 30 7.163 30 16S23.01 32 14.39 32c-8.62 0 1.561-7.163 1.561-16S5.77 0 14.391 0z" fill="#3B5998" fill-opacity=".6"/><path d="M11.89 23.62h2.748a.432.432 0 00.426-.438v-6.338h1.428c.218 0 .402-.17.424-.393l.24-2.394a.445.445 0 00-.107-.338.422.422 0 00-.317-.144h-1.668v-.97c0-.2.062-.215.157-.215h1.477a.432.432 0 00.426-.438V9.628a.432.432 0 00-.425-.437l-2.037-.009c-1.427 0-2.189.644-2.576 1.184-.541.754-.622 1.637-.622 2.097v1.112h-.88a.432.432 0 00-.427.437v2.394c0 .242.191.437.427.437h.88v6.34c0 .24.19.437.426.437zm-.88-7.652V14.45h.88a.432.432 0 00.427-.438v-1.55c0-.283.045-1.004.456-1.578.394-.549 1.03-.827 1.888-.827l1.61.007v1.45h-1.05c-.503 0-1.01.338-1.01 1.091v1.407c0 .242.19.438.426.438h1.622l-.153 1.519h-1.469a.432.432 0 00-.426.437v6.339h-1.894v-6.339a.432.432 0 00-.427-.437h-.88z" fill="#424041"/><path d="M23.315 6.501c-2.58-2.644-6.01-4.1-9.657-4.1C10.01 2.4 6.58 3.856 4 6.5c-2.58 2.644-4 6.16-4 9.9s1.42 7.255 4 9.9c2.58 2.643 6.01 4.1 9.658 4.1 3.648 0 7.078-1.457 9.657-4.1 2.58-2.645 4-6.16 4-9.9s-1.42-7.256-4-9.9zm-.603 19.18c-2.418 2.48-5.634 3.844-9.054 3.844s-6.636-1.365-9.054-3.843C2.186 23.202.854 19.907.854 16.4c0-3.505 1.332-6.801 3.75-9.28 2.419-2.48 5.634-3.845 9.054-3.845s6.635 1.366 9.054 3.845c2.418 2.479 3.75 5.775 3.75 9.28 0 3.507-1.332 6.803-3.75 9.282z" fill="#424041"/><path d="M22.943 8.689a.42.42 0 00-.6-.064.445.445 0 00-.063.615 11.578 11.578 0 012.475 7.161c0 3.04-1.154 5.896-3.25 8.044-2.096 2.148-4.883 3.331-7.847 3.331A10.925 10.925 0 016.26 24.88a.42.42 0 00-.602.035.445.445 0 00.033.617 11.766 11.766 0 007.967 3.12c3.192 0 6.193-1.275 8.45-3.588 2.258-2.314 3.5-5.39 3.5-8.663 0-2.801-.946-5.54-2.665-7.712zM2.56 16.4c0-6.272 4.979-11.375 11.098-11.375 2.734 0 5.362 1.028 7.397 2.896a.42.42 0 00.603-.034.445.445 0 00-.033-.618 11.765 11.765 0 00-7.967-3.12c-3.192 0-6.193 1.275-8.45 3.589-2.258 2.314-3.501 5.39-3.501 8.662 0 2.802.947 5.541 2.666 7.713a.422.422 0 00.6.064.445.445 0 00.062-.615A11.578 11.578 0 012.561 16.4z" fill="#424041"/></symbol><symbol fill="none" viewBox="0 0 30 32" id="instagram" xmlns="http://www.w3.org/2000/svg"><path d="M14.392 0C23.011 0 30 7.163 30 16s-6.988 16-15.608 16c-8.621 0 1.56-7.163 1.56-16S5.771 0 14.392 0z" fill="#E64D5B" fill-opacity=".8"/><path d="M23.315 6.5c-2.579-2.644-6.01-4.1-9.657-4.1C10.01 2.4 6.58 3.856 4 6.5 1.42 9.146 0 12.66 0 16.4s1.42 7.256 4 9.9 6.01 4.1 9.658 4.1c3.648 0 7.078-1.456 9.657-4.1 2.58-2.645 4-6.16 4-9.9s-1.42-7.255-4-9.9zm-.603 19.18c-2.418 2.48-5.634 3.845-9.054 3.845S7.022 28.16 4.604 25.68.854 19.906.854 16.4c0-3.506 1.332-6.802 3.75-9.28 2.419-2.48 5.634-3.845 9.054-3.845s6.635 1.365 9.054 3.844c2.418 2.48 3.75 5.775 3.75 9.28 0 3.507-1.332 6.803-3.75 9.282z" fill="#424041"/><path d="M22.943 8.688a.42.42 0 00-.6-.064.445.445 0 00-.063.615 11.578 11.578 0 012.475 7.161c0 3.04-1.154 5.896-3.25 8.044-2.096 2.148-4.883 3.331-7.847 3.331A10.924 10.924 0 016.26 24.88a.42.42 0 00-.602.034.445.445 0 00.033.618 11.766 11.766 0 007.967 3.12c3.192 0 6.194-1.275 8.45-3.588 2.258-2.314 3.5-5.39 3.5-8.663 0-2.801-.946-5.54-2.665-7.712zM2.56 16.4c0-6.272 4.979-11.375 11.098-11.375 2.734 0 5.361 1.028 7.397 2.896a.42.42 0 00.603-.034.445.445 0 00-.034-.618 11.765 11.765 0 00-7.966-3.12c-3.192 0-6.193 1.275-8.45 3.589-2.258 2.314-3.501 5.39-3.501 8.662 0 2.802.947 5.541 2.665 7.713a.422.422 0 00.6.064.445.445 0 00.063-.616A11.577 11.577 0 012.56 16.4z" fill="#424041"/><path d="M17.245 9.38h-7.148c-1.812 0-3.286 1.512-3.286 3.37v7.327c0 1.857 1.474 3.369 3.286 3.369h7.148c1.812 0 3.287-1.512 3.287-3.37V12.75c0-1.858-1.475-3.37-3.287-3.37zm2.421 10.697c0 1.368-1.086 2.482-2.421 2.482h-7.148c-1.335 0-2.42-1.114-2.42-2.482V12.75c0-1.368 1.085-2.482 2.42-2.482h7.148c1.335 0 2.421 1.114 2.421 2.482v7.327z" fill="#424041"/><path d="M17.506 11.952a.534.534 0 00-.527.54c0 .298.236.54.527.54.29 0 .526-.242.526-.54a.534.534 0 00-.526-.54zM13.672 12.967c-1.855 0-3.363 1.546-3.363 3.447 0 1.9 1.508 3.447 3.363 3.447 1.854 0 3.363-1.546 3.363-3.447 0-1.9-1.509-3.447-3.363-3.447zm0 6.007c-1.378 0-2.498-1.148-2.498-2.56 0-1.412 1.12-2.56 2.498-2.56 1.377 0 2.497 1.149 2.497 2.56 0 1.412-1.12 2.56-2.497 2.56z" fill="#424041"/></symbol><symbol fill="none" viewBox="0 0 37 24" id="mastercard" xmlns="http://www.w3.org/2000/svg"><path d="M22.932 4.181h-9.573v15.635h9.573V4.18z" fill="#FF5F00"/><path d="M14.345 12a9.926 9.926 0 013.798-7.816 9.942 9.942 0 100 15.634A9.926 9.926 0 0114.345 12z" fill="#EB001B"/><path d="M33.28 18.162v-.32h.137v-.067h-.328v.066h.13v.32h.06zm.637 0v-.387h-.099l-.116.276-.116-.276h-.1v.387h.072v-.293l.108.251h.075l.107-.251v.293h.07zM34.23 12a9.943 9.943 0 01-16.087 7.816 9.943 9.943 0 000-15.635 9.942 9.942 0 0116.087 7.816V12z" fill="#F79E1B"/></symbol><symbol viewBox="0 0 18 14" fill="none" id="menu" xmlns="http://www.w3.org/2000/svg"><path d="M1 1h16M1 7h16M1 13h16" stroke="#424041" stroke-width="2" stroke-linecap="round"/></symbol><symbol fill="none" viewBox="0 0 14 2" id="minus" xmlns="http://www.w3.org/2000/svg"><path d="M1 1h12" stroke="#424041" stroke-width="2" stroke-linecap="round"/></symbol><symbol fill="none" viewBox="0 0 14 14" id="plus" xmlns="http://www.w3.org/2000/svg"><path d="M1 7h12M7 13V1" stroke="#424041" stroke-width="2" stroke-linecap="round"/></symbol><symbol fill="none" viewBox="0 0 26 40" id="scroll-mouse" xmlns="http://www.w3.org/2000/svg"><rect x="1" y="1" width="24" height="38" rx="12" stroke="#424041" stroke-width="2"/><path d="M13 10.913v2.479" stroke="#424041" stroke-width="2" stroke-linecap="round" stroke-linejoin="round"/></symbol><symbol viewBox="0 0 164.74 53.2" id="visa" xmlns="http://www.w3.org/2000/svg"><defs><style>.ucls-1{fill:#1a1f71}</style></defs><g id="uСлой_2" data-name="Слой 2"><path class="ucls-1" d="M62.55.94L41 52.4H26.91L16.29 11.33c-.64-2.52-1.2-3.45-3.16-4.52A55.69 55.69 0 000 2.43L.31.94H23a6.21 6.21 0 016.14 5.24L34.71 36 48.56.94zm55.13 34.66C117.74 22 98.91 21.26 99 15.2c0-1.84 1.8-3.81 5.64-4.31a25.13 25.13 0 0113.13 2.3l2.33-10.92A35.89 35.89 0 00107.69 0c-13.16 0-22.42 7-22.5 17-.08 7.41 6.61 11.54 11.65 14 5.19 2.52 6.93 4.14 6.91 6.39 0 3.45-4.14 5-8 5a27.82 27.82 0 01-13.67-3.25L79.7 50.47c3.12 1.43 8.86 2.67 14.8 2.73 14 0 23.14-6.91 23.18-17.61m34.75 16.8h12.31L154 .94h-11.37A6.06 6.06 0 00137 4.71L117 52.4h14l2.78-7.68h17.08zm-14.86-18.22l7-19.32 4 19.32zM81.57.94l-11 51.46H57.25L68.26.94z" id="uLayer_1" data-name="Layer 1"/></g></symbol><symbol fill="none" viewBox="0 0 30 32" id="vk" xmlns="http://www.w3.org/2000/svg"><path d="M14.392 0C23.011 0 30 7.163 30 16s-6.988 16-15.608 16c-8.621 0 1.56-7.163 1.56-16S5.771 0 14.392 0z" fill="#4E729A" fill-opacity=".8"/><path d="M23.315 6.501c-2.58-2.644-6.01-4.1-9.657-4.1C10.01 2.4 6.58 3.856 4 6.5c-2.58 2.645-4 6.16-4 9.9s1.42 7.255 4 9.9c2.58 2.643 6.01 4.1 9.658 4.1 3.648 0 7.078-1.457 9.657-4.1 2.58-2.645 4-6.16 4-9.9s-1.42-7.256-4-9.9zm-.603 19.18c-2.418 2.48-5.634 3.844-9.054 3.844s-6.636-1.365-9.054-3.844c-2.418-2.478-3.75-5.774-3.75-9.28 0-3.506 1.332-6.802 3.75-9.281 2.419-2.48 5.634-3.845 9.054-3.845s6.635 1.366 9.054 3.845c2.418 2.479 3.75 5.775 3.75 9.28 0 3.507-1.332 6.803-3.75 9.281z" fill="#424041"/><path d="M22.943 8.687a.42.42 0 00-.6-.064.445.445 0 00-.063.616 11.578 11.578 0 012.475 7.16c0 3.04-1.154 5.896-3.25 8.045-2.096 2.148-4.883 3.33-7.847 3.33A10.925 10.925 0 016.26 24.88a.42.42 0 00-.602.034.445.445 0 00.033.618 11.766 11.766 0 007.967 3.119c3.192 0 6.194-1.274 8.45-3.588 2.257-2.313 3.5-5.39 3.5-8.662 0-2.802-.946-5.54-2.665-7.713zM2.561 16.4c0-6.271 4.979-11.374 11.098-11.374 2.734 0 5.361 1.028 7.397 2.896a.42.42 0 00.603-.034.445.445 0 00-.034-.618 11.765 11.765 0 00-7.966-3.12c-3.192 0-6.193 1.275-8.45 3.589-2.258 2.314-3.501 5.39-3.501 8.662 0 2.802.947 5.541 2.665 7.713a.422.422 0 00.6.064.445.445 0 00.063-.616 11.578 11.578 0 01-2.475-7.161z" fill="#424041"/><path d="M20.964 19.96l-.207-.348a9.13 9.13 0 00-1.46-1.852l-.694-.677a.19.19 0 01-.023-.243l.947-1.385c.137-.2.263-.41.375-.625l.81-1.553a.878.878 0 00-.02-.853.834.834 0 00-.724-.421l-1.753-.002h-.001c-.367 0-.7.223-.847.567l-.186.434a10.752 10.752 0 01-1.923 3v-3.166a.826.826 0 00-.814-.835H11.96a.75.75 0 00-.74.757c0 .16.048.313.14.442l.173.248c.17.243.26.53.26.83v2.313a9.227 9.227 0 01-.994-1.429c-.484-.871-.83-1.887-.993-2.416a1.042 1.042 0 00-.995-.745H7.037a.78.78 0 00-.632.322.823.823 0 00-.132.711l.332 1.205c.203.739.482 1.458.829 2.137a.404.404 0 00.552.177.425.425 0 00.173-.566 10.412 10.412 0 01-.767-1.975l-.322-1.173h1.742c.099 0 .185.065.215.161.173.56.541 1.639 1.061 2.577.427.77.945 1.411 1.305 1.814.196.22.5.293.771.184a.715.715 0 00.449-.67v-2.627c0-.476-.144-.932-.414-1.319l-.084-.12h2.325v3.364c0 .246.12.472.322.605a.684.684 0 00.672.05l.168-.08a.656.656 0 00.206-.15 11.59 11.59 0 002.122-3.289l.186-.434a.107.107 0 01.098-.065l1.753.002c.006 0 .015 0 .023.013s.003.021 0 .027l-.81 1.553a5.27 5.27 0 01-.322.538l-.948 1.385c-.287.419-.233.98.129 1.332l.694.678a8.295 8.295 0 011.326 1.682l.207.347c.006.009.02.034.002.069-.02.034-.048.034-.058.034h-1.513a.72.72 0 01-.52-.224l-1.513-1.595a2.581 2.581 0 00-1.309-.747.736.736 0 00-.634.153.776.776 0 00-.28.602v1.567a.242.242 0 01-.24.244 5.315 5.315 0 01-3.263-1.132 10.094 10.094 0 01-1.064-.964.402.402 0 00-.578-.006.427.427 0 00-.006.593c.358.374.745.725 1.151 1.043a6.125 6.125 0 003.76 1.305c.583 0 1.057-.486 1.057-1.083v-1.483c.312.085.594.255.82.492l1.513 1.595c.288.305.692.48 1.106.48h1.513c.32 0 .616-.178.772-.464a.927.927 0 00-.018-.917z" fill="#424041"/></symbol></svg>